<svg width="46" height="46" viewBox="0 0 46 46" fill="none" xmlns="http://www.w3.org/2000/svg">
<g filter="url(#filter0_d_121_2700)">
<path fill-rule="evenodd" clip-rule="evenodd" d="M27.0002 4.59383L30.5861 9.375L14.4143 9.375L18.0002 4.59383C18.4662 3.97251 18.3403 3.09107 17.7189 2.62508C17.0976 2.15909 16.2162 2.28501 15.7502 2.90633L10.8943 9.38089C7.46384 9.52045 4.71382 12.1257 3.95727 15.4688H41.043C40.2865 12.1258 37.5365 9.52049 34.1061 9.38089L29.2502 2.90633C28.7842 2.28501 27.9028 2.15909 27.2814 2.62508C26.6601 3.09107 26.5342 3.97251 27.0002 4.59383ZM41.1966 18.2812H3.80371C3.82877 18.5044 3.86276 18.7286 3.90601 18.9534L6.97148 34.8909C7.68366 38.5936 10.7241 41.25 14.2497 41.25H30.7506C34.2763 41.25 37.3167 38.5936 38.0288 34.8909L41.0943 18.9534C41.1375 18.7286 41.1715 18.5044 41.1966 18.2812ZM13.5939 26.25C13.5939 25.4734 14.2235 24.8438 15.0002 24.8438H30.0002C30.7768 24.8438 31.4064 25.4734 31.4064 26.25C31.4064 27.0266 30.7768 27.6562 30.0002 27.6562H15.0002C14.2235 27.6562 13.5939 27.0266 13.5939 26.25ZM16.8752 32.3438C16.0985 32.3438 15.4689 32.9734 15.4689 33.75C15.4689 34.5266 16.0985 35.1562 16.8752 35.1562H28.1252C28.9018 35.1562 29.5314 34.5266 29.5314 33.75C29.5314 32.9734 28.9018 32.3438 28.1252 32.3438H16.8752Z" fill="white"/>
</g>
<defs>
<filter id="filter0_d_121_2700" x="0" y="0" width="49" height="49" filterUnits="userSpaceOnUse" color-interpolation-filters="sRGB">
<feFlood flood-opacity="0" result="BackgroundImageFix"/>
<feColorMatrix in="SourceAlpha" type="matrix" values="0 0 0 0 0 0 0 0 0 0 0 0 0 0 0 0 0 0 127 0" result="hardAlpha"/>
<feOffset dx="4" dy="4"/>
<feComposite in2="hardAlpha" operator="out"/>
<feColorMatrix type="matrix" values="0 0 0 0 0 0 0 0 0 0 0 0 0 0 0 0 0 0 0.25 0"/>
<feBlend mode="normal" in2="BackgroundImageFix" result="effect1_dropShadow_121_2700"/>
<feBlend mode="normal" in="SourceGraphic" in2="effect1_dropShadow_121_2700" result="shape"/>
</filter>
</defs>
</svg>
