<svg width="45" height="45" viewBox="0 0 45 45" fill="none" xmlns="http://www.w3.org/2000/svg">
<path d="M10.368 28.4712C9.21711 29.398 10.5614 30.073 11.1242 30.5C13.7492 31.75 18.7492 33.016 22.8742 33C26.6242 32.9855 32.0171 32.0492 33.6242 31C34.5432 29.9493 34.0672 29.6499 34.0672 29.6499C34.0672 29.6499 21.5295 32.5892 10.368 28.4712Z" fill="#BE8B40"/>
<path d="M11.0248 26.3096C10.8672 26.239 9.11012 27.2552 10.2165 28.7926C10.5273 29.5805 21.1421 31.8885 23.7597 31.4899C26.3773 31.0913 33.9738 30.5053 34.1001 29.6822C34.2264 28.8591 34.236 26.9157 34.236 26.9157C34.236 26.9157 20.9289 30.7613 11.0248 26.3096Z" fill="#59361F"/>
<path d="M10.7842 24.0645C9.25917 24.2259 9.5042 25.8215 9.88295 26.1228C10.2617 26.4241 12.0374 26.3652 11.6355 27.5959C11.2335 28.8265 11.5724 30.3154 12.3258 29.5671C13.0792 28.8188 14.5351 28.2132 14.6132 28.9139C14.6913 29.6145 16.0717 30.7151 16.4065 30.1019C16.7414 29.4887 17.7566 31.2055 18.4999 30.7967C19.2431 30.388 20.0971 29.4811 20.2789 29.9482C20.4607 30.4153 23.6916 32.9664 23.9759 30.9963C24.2602 29.0261 26.057 30.4612 27.2679 30.299C28.4788 30.1368 30.0931 30.7369 30.2499 29.9382C30.4067 29.1394 31.9447 29.8035 32.415 30.4255C32.8852 31.0475 33.4915 31.205 33.7749 30.3962C34.0584 29.5873 33.2364 28.6899 33.2364 28.6899C33.2364 28.6899 34.618 29.961 34.9175 29.1517C35.2171 28.3423 34.9871 27.3633 34.8907 27.1117C34.7944 26.8601 34.7163 26.1595 35.0512 26.0675C35.3861 25.9756 34.8392 24.5973 34.1694 24.7889C33.4995 24.9805 10.7842 24.0645 10.7842 24.0645Z" fill="#86B240"/>
<path d="M13.8896 15.5511C13.8896 15.5511 17.8634 27.0453 19.7974 29.9628C20.8925 31.6155 21.3165 30.2327 22.6064 29.3702C23.8963 28.5078 27.271 27.1274 27.4139 26.126C27.5568 25.1246 16.7239 15.4981 16.7239 15.4981L13.8896 15.5511Z" fill="#FEEA59"/>
<path d="M16.8925 25.4918C15.8765 25.4461 11.5779 24.3899 11.1744 24.6317C10.7709 24.8736 10.422 25.5218 11.4162 26.2773C12.5109 27.1117 18.0669 28.5254 18.5685 28.0253C19.0702 27.5252 20.1993 25.6353 16.8925 25.4918Z" fill="#E56627"/>
<path d="M24.9942 25.816C24.0225 25.9796 19.7838 25.8258 19.4308 26.1445C19.0778 26.4633 18.8436 27.1707 19.8952 27.7077C21.056 28.2984 26.5395 28.5437 26.937 27.9533C27.3345 27.3628 28.1588 25.2841 24.9942 25.816Z" fill="#E56627"/>
<path d="M31.636 25.2053C30.9078 25.4698 27.6148 25.7742 27.3869 26.1174C27.1591 26.4605 27.0802 27.1819 27.9703 27.5921C28.9516 28.0453 33.2207 27.6978 33.4431 27.0789C33.6654 26.46 34.0023 24.3481 31.636 25.2053Z" fill="#E56627"/>
<path d="M11.2532 21.4384C11.0973 21.3575 10.2765 23.9343 10.588 24.8301C10.8995 25.7258 21.3779 27.8179 23.9934 27.3776C26.6089 26.9374 34.2069 26.3073 34.3324 25.3735C34.458 24.4398 34.4675 22.2338 34.4675 22.2338C34.4675 22.2338 21.1619 26.5375 11.2532 21.4384Z" fill="#59361F"/>
<path d="M11.0144 19.1948C9.48757 19.3563 9.73259 20.95 10.1114 21.2532C10.4901 21.5565 12.2658 21.4937 11.8656 22.7262C11.4655 23.9587 11.8026 25.4438 12.5542 24.6956C13.3058 23.9474 14.7635 23.3418 14.8433 24.0423C14.9232 24.7429 16.3018 25.8435 16.6367 25.2303C16.9715 24.6171 17.9868 26.3339 18.73 25.9252C19.4733 25.5164 20.338 24.6072 20.5091 25.0747C20.6801 25.5422 23.9218 28.0929 24.2078 26.1227C24.4939 24.1525 26.2872 25.5878 27.4981 25.4351C28.7091 25.2825 30.3251 25.871 30.4801 25.0724C30.6352 24.2737 32.1767 24.9376 32.647 25.5616C33.1173 26.1855 33.7235 26.341 34.0052 25.5304C34.2869 24.7197 33.4684 23.8241 33.4684 23.8241C33.4684 23.8241 34.85 25.0952 35.1495 24.2858C35.4491 23.4764 35.2191 22.4974 35.121 22.2478C35.0228 21.9982 34.9465 21.2956 35.2814 21.2017C35.6163 21.1079 35.0712 19.7314 34.3996 19.9231C33.728 20.1147 11.0144 19.1948 11.0144 19.1948Z" fill="#86B240"/>
<path d="M12.1581 20.4396C12.1581 20.4396 28.0409 26.003 28.7218 27.9017C29.4027 29.8005 30.1632 27.2621 30.8491 25.8071C31.5351 24.3521 33.7572 21.2769 33.3866 20.3545C33.016 19.432 18.9211 17.5768 18.9211 17.5768L12.1581 20.4396Z" fill="#FEEA59"/>
<path d="M33.2331 19.1122C33.2331 19.1122 16.6929 22.8809 15.7578 24.6913C14.8226 26.5017 14.417 23.8959 13.9422 22.3772C13.4675 20.8585 11.6933 17.5618 12.1905 16.6882C12.6877 15.8146 26.9193 15.5168 26.9193 15.5168L33.2331 19.1122Z" fill="#FEEA59"/>
<path d="M17.1202 20.6203C16.1043 20.5765 11.8057 19.5184 11.4022 19.7603C10.9987 20.0021 10.6498 20.6503 11.6422 21.4078C12.7387 22.2402 18.2946 23.6539 18.7945 23.1539C19.2944 22.6538 20.4271 20.7696 17.1202 20.6203Z" fill="#E56627"/>
<path d="M25.2224 20.9446C24.2508 21.1081 20.0138 20.9543 19.6591 21.2731C19.3043 21.5918 19.0719 22.2993 20.1234 22.8362C21.2843 23.427 26.7678 23.6722 27.167 23.0817C27.5663 22.4912 28.3871 20.4126 25.2224 20.9446Z" fill="#E56627"/>
<path d="M32.0969 20.6976C31.3687 20.9601 28.0757 21.2645 27.8479 21.6096C27.62 21.9547 27.5412 22.6741 28.4312 23.0844C29.4126 23.5375 33.6817 23.192 33.904 22.5731C34.1264 21.9542 34.4668 19.8384 32.0969 20.6976Z" fill="#E56627"/>
<path d="M34.939 19.2396C34.7181 22.3612 29.0858 22.7803 22.3805 22.4082C15.6751 22.0362 10.4344 21.018 10.6552 17.8964C10.6642 17.7726 10.6824 17.6496 10.7098 17.5285C10.9082 20.3713 15.9932 21.3239 22.4343 21.6801C28.8753 22.0363 34.324 21.6561 34.94 18.8697C34.9474 18.9927 34.9471 19.1163 34.939 19.2396V19.2396Z" fill="#AA7833"/>
<path d="M34.7793 18.8161C34.7684 18.8604 34.7575 18.9047 34.7431 18.9491C34.4265 15.8516 29.4174 11.6224 23.0824 11.1933C16.7473 10.7642 11.3699 14.2867 10.584 17.3086C10.5781 17.2656 10.5747 17.2221 10.5738 17.1785C11.2188 14.1252 16.6663 10.4766 23.1084 10.9129C29.5505 11.3493 34.6144 15.7057 34.7793 18.8161Z" fill="#D1A065"/>
<path d="M34.9473 19.0177C34.1628 21.6831 28.6598 22.3382 22.3247 21.9091C15.9897 21.48 10.6529 20.4497 10.5841 17.3086C11.37 14.2867 16.7528 10.7641 23.0878 11.1932C29.4229 11.6222 34.6307 15.9183 34.9473 19.0177Z" fill="#BE8B40"/>
<path d="M13.848 16.6111C14.1598 16.4102 14.3499 16.1323 14.2727 15.9903C14.1955 15.8483 13.8802 15.8961 13.5684 16.097C13.2566 16.2979 13.0665 16.5759 13.1437 16.7178C13.2209 16.8598 13.5363 16.812 13.848 16.6111Z" fill="#CCA36C"/>
<path d="M16.0619 14.2989C16.3737 14.098 16.5638 13.8201 16.4866 13.6781C16.4094 13.5361 16.0941 13.5839 15.7823 13.7848C15.4705 13.9857 15.2804 14.2637 15.3576 14.4056C15.4348 14.5476 15.7501 14.4999 16.0619 14.2989Z" fill="#CCA36C"/>
<path d="M18.4538 15.5421C18.721 15.2638 18.8539 14.9452 18.7505 14.8305C18.6471 14.7159 18.3467 14.8485 18.0795 15.1269C17.8123 15.4052 17.6795 15.7237 17.7829 15.8384C17.8862 15.9531 18.1866 15.8204 18.4538 15.5421Z" fill="#CCA36C"/>
<path d="M20.3359 13.0378C20.5847 12.8391 20.7253 12.5883 20.6498 12.4777C20.5744 12.3672 20.3116 12.4387 20.0628 12.6375C19.814 12.8362 19.6734 13.087 19.7489 13.1976C19.8243 13.3081 20.0871 13.2366 20.3359 13.0378Z" fill="#CCA36C"/>
<path d="M22.1986 16.7813C22.3563 16.4008 22.377 16.0434 22.2448 15.983C22.1127 15.9226 21.8778 16.1822 21.7201 16.5628C21.5624 16.9433 21.5417 17.3007 21.6738 17.3611C21.806 17.4215 22.0409 17.1619 22.1986 16.7813Z" fill="#CCA36C"/>
<path d="M27.0935 13.2545C27.1525 13.1249 26.9841 12.9105 26.7173 12.7758C26.4505 12.641 26.1864 12.6368 26.1274 12.7664C26.0683 12.896 26.2368 13.1103 26.5036 13.2451C26.7703 13.3799 27.0345 13.3841 27.0935 13.2545Z" fill="#CCA36C"/>
<path d="M25.423 14.2397C25.5198 14.1471 25.434 13.8727 25.2313 13.6268C25.0286 13.381 24.7858 13.2568 24.689 13.3495C24.5922 13.4421 24.678 13.7165 24.8807 13.9623C25.0833 14.2081 25.3261 14.3323 25.423 14.2397Z" fill="#CCA36C"/>
<path d="M22.4566 13.1428C22.6945 12.9256 22.8213 12.6653 22.7397 12.5614C22.6581 12.4574 22.3991 12.5491 22.1612 12.7663C21.9233 12.9834 21.7966 13.2437 21.8782 13.3476C21.9597 13.4516 22.2187 13.3599 22.4566 13.1428Z" fill="#CCA36C"/>
<path d="M26.2052 16.9071C26.3199 16.7974 26.2182 16.4723 25.9781 16.1811C25.738 15.8898 25.4503 15.7427 25.3356 15.8524C25.2209 15.9622 25.3226 16.2872 25.5627 16.5785C25.8028 16.8697 26.0905 17.0169 26.2052 16.9071Z" fill="#CCA36C"/>
<path d="M29.7481 18.7787C29.8629 18.669 29.7612 18.3439 29.5211 18.0526C29.2809 17.7614 28.9933 17.6143 28.8786 17.724C28.7639 17.8337 28.8656 18.1588 29.1057 18.45C29.3458 18.7413 29.6334 18.8884 29.7481 18.7787Z" fill="#CCA36C"/>
<path d="M23.7277 20.0515C23.8697 20.0307 23.9497 19.6788 23.9063 19.2656C23.8629 18.8523 23.7127 18.5342 23.5706 18.5551C23.4286 18.5759 23.3486 18.9278 23.392 19.3411C23.4354 19.7543 23.5856 20.0724 23.7277 20.0515Z" fill="#CCA36C"/>
<path d="M18.3856 18.7134C18.6463 18.4237 18.7707 18.0989 18.6636 17.9878C18.5564 17.8767 18.2582 18.0214 17.9975 18.311C17.7367 18.6006 17.6123 18.9255 17.7194 19.0366C17.8266 19.1477 18.1249 19.003 18.3856 18.7134Z" fill="#CCA36C"/>
<path d="M32.3625 16.8179C32.4726 16.7012 32.3566 16.3833 32.1036 16.108C31.8506 15.8326 31.5563 15.7039 31.4463 15.8206C31.3363 15.9373 31.4522 16.2551 31.7052 16.5305C31.9582 16.8059 32.2525 16.9346 32.3625 16.8179Z" fill="#CCA36C"/>
<path d="M29.4651 15.6761C29.5751 15.5594 29.4592 15.2416 29.2062 14.9662C28.9531 14.6908 28.6588 14.5622 28.5488 14.6789C28.4388 14.7955 28.5547 15.1134 28.8077 15.3888C29.0608 15.6642 29.355 15.7928 29.4651 15.6761Z" fill="#CCA36C"/>
</svg>
