<svg width="45" height="45" viewBox="0 0 45 45" fill="none" xmlns="http://www.w3.org/2000/svg">
<path d="M28.9148 11.8146C33.8295 12.9941 34.3721 15.6815 35.0759 17.4312C35.7365 19.0747 37.2109 21.8761 36.688 23.5943C35.7247 26.7535 31.4881 28.69 27.5956 30.2548C24.5917 31.4619 19.7064 34.0884 17.8369 34.1866C15.5721 34.2967 8.65801 34.9848 7.09315 27.1565C5.9136 21.2588 7.87951 19.6861 11.3887 18.1487C13.85 17.0577 25.7929 11.0656 28.9148 11.8146Z" fill="#FFF7D7"/>
<path d="M8.46928 24.3964C6.70978 24.8348 7.71633 27.477 8.19208 27.4062C8.66783 27.3354 7.43324 29.3721 8.04857 29.7319C8.6639 30.0917 9.95157 30.1546 10.2917 30.3217C10.6318 30.4888 9.71763 31.2909 10.0754 31.9711C10.4332 32.6513 11.7976 32.3072 11.7976 32.3072C11.7976 32.3072 13.6495 31.9868 12.3362 29.7633C11.023 27.5399 11.2569 28.053 10.4529 26.7162C9.64882 25.3794 9.25564 24.1998 8.46928 24.3964Z" fill="#58A31D"/>
<path d="M12.9555 28.1198C12.9555 28.1198 12.1691 27.4278 11.3552 27.6972C10.5413 27.9665 9.3893 29.5707 10.2071 30.5871C11.0249 31.6034 13.0852 32.4822 14.6304 31.6192C15.4895 31.1395 12.9555 28.1198 12.9555 28.1198Z" fill="#CB7329"/>
<path d="M15.3148 29.6926C15.3148 29.6926 14.5285 29.0006 13.7146 29.2699C12.9007 29.5392 11.7487 31.1434 12.5665 32.1598C13.3843 33.1762 15.4446 34.0549 16.9898 33.1919C17.8489 32.7122 15.3148 29.6926 15.3148 29.6926Z" fill="#CB7329"/>
<path d="M10.5315 27.0661C11.3434 26.5353 12.3008 26.6729 12.6763 27.3905C13.0518 28.108 14.0524 29.7496 13.2326 30.3C12.4128 30.8505 10.1167 30.0622 9.73527 29.3446C9.35389 28.627 9.70972 27.6126 10.5216 27.072L10.5315 27.0661Z" fill="#563722"/>
<path d="M8.80576 23.1716C9.47024 23.1441 10.0187 23.5982 10.0325 24.1861C10.0462 24.7739 10.1485 26.1795 9.48006 26.209C8.81165 26.2385 7.63211 24.88 7.62031 24.2922C7.60852 23.7044 8.13342 23.2031 8.79986 23.1736L8.80576 23.1716Z" fill="#664328"/>
<path d="M8.66025 25.2339C9.32473 25.2044 9.87322 25.6585 9.88698 26.2463C9.90074 26.8341 10.003 28.2398 9.33456 28.2634C8.66615 28.287 7.4866 26.9344 7.4748 26.3466C7.46301 25.7588 7.98791 25.2575 8.65435 25.228L8.66025 25.2339Z" fill="#664328"/>
<path d="M10.6321 20.8578C8.48929 21.2962 9.14787 24.3315 9.72388 24.2608C10.2999 24.19 8.80187 26.2267 9.55088 26.5864C10.2999 26.9462 11.8687 27.0091 12.2835 27.1762C12.6983 27.3433 11.5836 28.1454 12.0201 28.8256C12.4565 29.5058 14.1197 29.1618 14.1197 29.1618C14.1197 29.1618 16.3824 28.8413 14.7763 26.6179C13.1701 24.3944 13.4611 24.9075 12.4801 23.5707C11.4991 22.2339 11.5895 20.6612 10.6321 20.8578Z" fill="#58A31D"/>
<path d="M14.0838 29.2109C14.5851 28.7745 15.2968 28.7863 15.6742 29.2404C16.0517 29.6945 17.0091 30.7266 16.5019 31.165C15.9947 31.6034 14.2293 31.2771 13.8538 30.819C13.4783 30.361 13.5766 29.6395 14.0779 29.2109H14.0838Z" fill="#664328"/>
<path d="M15.2537 30.9134C15.755 30.477 16.4686 30.4888 16.8461 30.9409C17.2236 31.3931 18.179 32.4272 17.6737 32.8675C17.1685 33.3079 15.3992 32.9815 15.0237 32.5274C14.6482 32.0733 14.7465 31.3479 15.2478 30.9193L15.2537 30.9134Z" fill="#664328"/>
<path d="M11.719 23.9482C11.719 23.9482 10.8776 22.8178 10.0676 23.1933C9.25766 23.5688 8.15282 26.0222 9.03551 27.6736C9.91821 29.3249 12.2753 27.6736 13.2367 27.3119C14.198 26.9501 11.719 23.9482 11.719 23.9482Z" fill="#CB7329"/>
<path d="M11.57 20.1186C11.57 20.1186 10.9921 19.6743 10.6382 19.979C10.2843 20.2837 10.0917 21.6658 10.7679 22.3656C11.4442 23.0655 12.3839 21.9076 12.8066 21.5793C13.2293 21.2509 11.57 20.1186 11.57 20.1186Z" fill="#CB7329"/>
<path d="M12.1357 23.9718C13.0773 23.9305 13.8558 24.5753 13.8735 25.4089C13.8912 26.2424 14.0387 28.2319 13.0872 28.2732C12.1357 28.3145 10.4843 26.3918 10.4568 25.5563C10.4293 24.7208 11.1861 24.015 12.1258 23.9737L12.1357 23.9718Z" fill="#664328"/>
<path d="M15.0475 26.494C15.0475 26.494 14.2473 25.7765 13.4217 26.0576C12.596 26.3387 11.4361 28.0078 12.2736 29.0674C13.111 30.127 14.2867 30.19 15.2499 29.9069C16.2132 29.6238 15.0475 26.494 15.0475 26.494Z" fill="#C9632B"/>
<path d="M11.0626 22.3912C11.7271 22.3617 12.2756 22.8158 12.2893 23.4036C12.3031 23.9914 12.4053 25.3971 11.7369 25.4265C11.0685 25.456 9.88894 24.0976 9.87715 23.5098C9.86535 22.922 10.3903 22.4207 11.0567 22.3912H11.0626Z" fill="#563722"/>
<path d="M12.9908 23.0203C11.2313 23.4587 12.2378 26.1008 12.7136 26.0301C13.1893 25.9593 11.9547 27.996 12.5701 28.3557C13.1854 28.7155 14.4731 28.7784 14.8132 28.9455C15.1533 29.1126 14.2391 29.9147 14.5969 30.5949C14.9547 31.2751 16.319 30.9311 16.319 30.9311C16.319 30.9311 18.3833 30.4809 17.3158 28.1316C16.3328 25.9691 16.7437 26.323 15.9396 24.9862C15.1356 23.6494 13.7771 22.8237 12.9908 23.0203Z" fill="#86B240"/>
<path d="M13.1443 21.7306C13.1443 21.7306 11.9647 20.9698 11.3337 21.6127C10.7026 22.2555 10.5473 24.937 11.9608 26.1638C13.3743 27.3905 14.9922 25.0235 15.7531 24.3315C16.5139 23.6395 13.1443 21.7306 13.1443 21.7306Z" fill="#C9632B"/>
<path d="M17.937 25.0137C17.937 25.0137 17.5615 23.6592 16.6709 23.7123C15.7803 23.7653 13.8597 25.6546 14.0857 27.5104C14.3118 29.3662 17.0995 28.69 18.1237 28.69C19.148 28.69 17.937 25.0137 17.937 25.0137Z" fill="#CB7329"/>
<path d="M13.3885 21.6599C14.279 21.0701 15.3682 21.1428 15.8183 21.8447C16.2685 22.5465 18.0162 23.9895 17.1198 24.5969C16.2233 25.2044 13.0405 24.7247 12.5825 24.0209C12.1244 23.3171 12.4881 22.2654 13.3688 21.6618L13.3885 21.6599Z" fill="#664328"/>
<path d="M11.3556 20.7791C11.7586 20.2483 12.4585 20.1166 12.9283 20.4823C13.3982 20.8479 14.5364 21.6618 14.1295 22.2005C13.7225 22.7391 11.9198 22.7726 11.4676 22.4049C11.0155 22.0373 10.9565 21.3139 11.3595 20.785L11.3556 20.7791Z" fill="#664328"/>
<path d="M16.8189 24.7424C17.4716 24.6186 18.081 24.9881 18.1793 25.5681C18.2776 26.148 18.5843 27.5242 17.9257 27.65C17.2671 27.7758 15.9067 26.6022 15.8084 26.0222C15.7101 25.4423 16.1584 24.8702 16.8111 24.7444L16.8189 24.7424Z" fill="#563722"/>
<path d="M16.4768 28.2063C17.3221 28.1041 18.0653 28.6271 18.14 29.3859C18.2147 30.1447 18.484 31.9141 17.6347 32.0163C16.7854 32.1185 15.1518 30.5065 15.079 29.7575C15.0063 29.0084 15.6275 28.3204 16.4709 28.2162L16.4768 28.2063Z" fill="#664328"/>
<path d="M10.6414 19.7372C10.3681 20.1461 15.4874 20.9639 17.0011 23.8066C18.4421 26.5098 17.9054 33.0248 18.4028 33.1349C18.9002 33.245 18.9474 26.1598 17.644 23.6238C16.3406 21.0878 10.9147 19.3283 10.6414 19.7372Z" fill="#DAD2B3"/>
</svg>
