<svg width="45" height="45" viewBox="0 0 45 45" fill="none" xmlns="http://www.w3.org/2000/svg">
<path d="M22.5746 9.4286C22.1954 9.50889 21.833 9.65385 21.5032 9.85719C21.4241 9.81418 21.3566 9.75279 21.3062 9.67822C21.2559 9.60358 21.2242 9.51802 21.2139 9.4286H22.5746Z" fill="#EBFCFB"/>
<path d="M29.9162 9.85719C29.5863 9.65385 29.2239 9.50889 28.8447 9.4286H30.214C30.2028 9.51885 30.1698 9.605 30.1179 9.67963C30.066 9.75427 29.9968 9.81521 29.9162 9.85719Z" fill="#EBFCFB"/>
<path d="M25.7143 8.14288C23.1107 8.14288 21 8.71933 21 9.4286H21.2143C21.2255 9.51885 21.2585 9.605 21.3104 9.67963C21.3622 9.75427 21.4315 9.81521 21.5122 9.85719C21.842 9.65385 22.2045 9.50889 22.5835 9.4286C23.6096 9.18933 24.6608 9.0749 25.7143 9.08788C26.7707 9.07419 27.8248 9.18862 28.8536 9.4286C29.2327 9.50889 29.5951 9.65385 29.925 9.85719C30.0041 9.81418 30.0716 9.75279 30.122 9.67822C30.1723 9.60358 30.2039 9.51802 30.2143 9.4286H30.4286C30.4286 8.71933 28.3178 8.14288 25.7143 8.14288Z" fill="#E2F2F0"/>
<path d="M30.4286 9.4286C30.4286 9.6129 30.2872 9.7886 30.03 9.94719C29.7776 10.0938 29.5076 10.2075 29.2264 10.2858C28.0814 10.5915 26.8992 10.7358 25.7143 10.7143C24.5294 10.7358 23.3472 10.5915 22.2021 10.2858C21.921 10.2075 21.651 10.0938 21.3986 9.94719C21.1414 9.7886 21 9.6129 21 9.4286H21.2143C21.2255 9.51885 21.2585 9.605 21.3104 9.67963C21.3622 9.75427 21.4315 9.81521 21.5122 9.85719C21.842 10.0605 22.2045 10.2056 22.5835 10.2858C23.6096 10.5251 24.6608 10.6395 25.7143 10.6265C26.7707 10.6402 27.8248 10.5258 28.8536 10.2858C29.2327 10.2056 29.5951 10.0605 29.925 9.85719C30.0041 9.81418 30.0716 9.75279 30.122 9.67822C30.1723 9.60358 30.2039 9.51802 30.2143 9.4286H30.4286Z" fill="#E2F2F0"/>
<path d="M30.2139 9.42865C30.2026 9.51885 30.1696 9.60499 30.1178 9.67963C30.0659 9.75433 29.9966 9.81527 29.916 9.85725C29.5861 9.65391 29.2237 9.50888 28.8446 9.42865C27.8186 9.18932 26.7674 9.07496 25.7139 9.08794C24.6575 9.07425 23.6034 9.18861 22.5746 9.42865C22.1954 9.50888 21.833 9.65391 21.5032 9.85725C21.4241 9.81418 21.3566 9.75278 21.3062 9.67821C21.2559 9.60364 21.2242 9.51808 21.2139 9.42865C21.2139 8.76651 23.2281 8.23082 25.7139 8.23082C28.1996 8.23082 30.2139 8.76651 30.2139 9.42865Z" fill="#D4E8E5"/>
<path opacity="0.5" d="M30.4286 9.4286V29.1429H30.1393C30.1864 29.0813 30.2126 29.0062 30.2143 28.9286C30.2114 28.8368 30.1765 28.7489 30.1157 28.68C29.4364 28.2 27.7222 27.8572 25.7143 27.8572C23.7064 27.8572 21.9921 28.2 21.3129 28.68C21.2521 28.7489 21.2172 28.8368 21.2143 28.9286C21.216 29.0062 21.2422 29.0813 21.2893 29.1429H21V9.4286C21 9.6129 21.1414 9.7886 21.3986 9.94719C21.651 10.0938 21.921 10.2075 22.2021 10.2858C23.3472 10.5915 24.5294 10.7358 25.7143 10.7143C26.8992 10.7358 28.0814 10.5915 29.2264 10.2858C29.5076 10.2075 29.7776 10.0938 30.03 9.94719C30.2872 9.7886 30.4286 9.6129 30.4286 9.4286Z" fill="#EBFCFB"/>
<path d="M30.2139 10.2857V28.9286C30.211 28.8368 30.1761 28.7488 30.1153 28.68C29.436 28.2 27.7217 27.8571 25.7139 27.8571C23.706 27.8571 21.9917 28.2 21.3124 28.68C21.2516 28.7488 21.2168 28.8368 21.2139 28.9286V10.2857H22.2017C23.3467 10.5915 24.5289 10.7357 25.7139 10.7143C26.8988 10.7357 28.081 10.5915 29.226 10.2857H30.2139Z" fill="#C49A31"/>
<path d="M29.9158 9.85718C29.5859 10.0605 29.2235 10.2055 28.8444 10.2858C27.8184 10.525 26.7672 10.6395 25.7136 10.6265C24.6573 10.6402 23.6032 10.5258 22.5744 10.2858C22.1952 10.2055 21.8328 10.0605 21.5029 9.85718C21.8328 9.65385 22.1952 9.50888 22.5744 9.42859C23.6032 9.18861 24.6573 9.07418 25.7136 9.08787C26.77 9.07418 27.8241 9.18861 28.8529 9.42859C29.229 9.50978 29.5885 9.65475 29.9158 9.85718Z" fill="#D5AB44"/>
<path d="M30.2139 10.2858C30.2139 10.9479 28.1996 11.4836 25.7139 11.4836C23.2281 11.4836 21.2139 10.9479 21.2139 10.2858C21.2186 10.2194 21.2375 10.1549 21.2693 10.0965C21.301 10.0381 21.345 9.98718 21.3982 9.94719C21.6505 10.0938 21.9206 10.2075 22.2017 10.2858C23.3467 10.5915 24.5289 10.7358 25.7139 10.7143C26.8988 10.7358 28.081 10.5915 29.226 10.2858C29.5072 10.2075 29.7772 10.0938 30.0296 9.94719C30.0827 9.98718 30.1267 10.0381 30.1585 10.0965C30.1903 10.1549 30.2092 10.2194 30.2139 10.2858Z" fill="#D4AB44"/>
<path d="M28.9714 11.9078C28.9714 11.9078 28.1142 11.0507 27.945 11.0143C27.7757 10.9778 26.6314 11.0464 26.5928 11.1729C26.5543 11.2992 27.6042 12.1092 27.6042 12.1092L28.9714 11.9078Z" fill="#DDE8E8" fill-opacity="0.8"/>
<path d="M27.1944 13.5258C27.1944 13.5258 26.2515 12.7115 26.2258 12.5808C26.2001 12.4501 26.5922 11.1729 26.5922 11.1729L27.6423 12.1029L27.1944 13.5258Z" fill="#E6EFEF" fill-opacity="0.8"/>
<path d="M27.1947 13.5258C27.3854 13.5836 28.3733 13.3308 28.4804 13.2215C28.5875 13.1122 29.0654 12.0043 28.9583 11.9015C28.8511 11.7986 27.6104 12.1008 27.6104 12.1008C27.6104 12.1008 26.9997 13.4658 27.1947 13.5258Z" fill="#D7E2E2" fill-opacity="0.8"/>
<path d="M29.2091 16.2858C29.2091 16.2858 28.1527 15.2144 27.9363 15.1758C27.7198 15.1372 26.3055 15.2144 26.2562 15.373C26.207 15.5315 27.5141 16.5365 27.5141 16.5365L29.2091 16.2858Z" fill="#DDE8E8" fill-opacity="0.8"/>
<path d="M26.9998 18.2915C26.9998 18.2915 25.8319 17.2822 25.7976 17.1194C25.7634 16.9565 26.2519 15.3708 26.2519 15.3708L27.5376 16.5258L26.9998 18.2915Z" fill="#E6EFEF" fill-opacity="0.8"/>
<path d="M26.9994 18.2914C27.2373 18.3643 28.4629 18.0493 28.5894 17.9164C28.7158 17.7836 29.3179 16.4036 29.1829 16.2771C29.0479 16.1507 27.5115 16.5236 27.5115 16.5236C27.5115 16.5236 26.7658 18.2143 26.9994 18.2914Z" fill="#D7E2E2" fill-opacity="0.8"/>
<path d="M25.0138 13.4615C25.0138 13.4615 23.9317 13.3758 23.7924 13.4615C23.6531 13.5473 22.9159 14.248 22.9653 14.3573C23.0146 14.4665 24.2038 14.4001 24.2038 14.4001L25.0138 13.4615Z" fill="#DDE8E8" fill-opacity="0.8"/>
<path d="M24.7563 15.6044C24.7563 15.6044 23.6377 15.6044 23.5413 15.5316C23.4449 15.4587 22.9648 14.3573 22.9648 14.3573L24.2184 14.3787L24.7563 15.6044Z" fill="#E6EFEF" fill-opacity="0.8"/>
<path d="M24.7563 15.6043C24.9213 15.5336 25.4421 14.7793 25.4506 14.6464C25.4592 14.5136 25.1335 13.4743 24.9985 13.4679C24.8635 13.4614 24.1992 14.3936 24.1992 14.3936C24.1992 14.3936 24.5914 15.6772 24.7563 15.6043Z" fill="#D7E2E2" fill-opacity="0.8"/>
<path d="M24.3402 18.4071C24.3402 18.4071 23.2689 18.5571 23.1445 18.6643C23.0203 18.7714 22.4589 19.6242 22.5296 19.7142C22.6003 19.8042 23.7488 19.5 23.7488 19.5L24.3402 18.4071Z" fill="#DDE8E8" fill-opacity="0.8"/>
<path d="M24.5467 20.5586C24.5467 20.5586 23.4539 20.7964 23.3446 20.745C23.2353 20.6936 22.5303 19.7143 22.5303 19.7143L23.7603 19.4657L24.5467 20.5586Z" fill="#E6EFEF" fill-opacity="0.8"/>
<path d="M24.5466 20.5586C24.6923 20.4536 25.0416 19.605 25.0202 19.4721C24.9987 19.3393 24.4609 18.4008 24.328 18.4179C24.1951 18.435 23.7451 19.4893 23.7451 19.4893C23.7451 19.4893 24.4008 20.6636 24.5466 20.5586Z" fill="#D7E2E2" fill-opacity="0.8"/>
<path d="M30.1154 28.68C29.4361 28.2 27.7218 27.8572 25.7139 27.8572C23.7061 27.8572 21.9918 28.2 21.3125 28.68C21.7411 28.1357 23.5496 27.7307 25.7139 27.7307C27.8783 27.7307 29.6847 28.1357 30.1154 28.68Z" fill="#D5AB44"/>
<path opacity="0.5" d="M30.4286 29.143C30.4286 29.8523 28.3178 30.4287 25.7143 30.4287C23.1107 30.4287 21 29.8523 21 29.143C21.0057 29.067 21.0278 28.9932 21.0649 28.9266C21.1018 28.86 21.1528 28.8023 21.2143 28.7573C21.2443 28.7315 21.2764 28.7058 21.3129 28.6801C21.2521 28.749 21.2172 28.8369 21.2143 28.9287C21.216 29.0063 21.2422 29.0813 21.2893 29.143C21.6686 29.7023 23.505 30.1265 25.7143 30.1265C27.9236 30.1265 29.76 29.698 30.1393 29.143C30.1864 29.0813 30.2126 29.0063 30.2143 28.9287C30.2114 28.8369 30.1765 28.749 30.1157 28.6801C30.1522 28.7058 30.1843 28.7315 30.2143 28.7573C30.2757 28.8023 30.3268 28.86 30.3637 28.9266C30.4007 28.9932 30.4229 29.067 30.4286 29.143Z" fill="#DAEFED"/>
<path opacity="0.5" d="M30.2139 28.9287C30.2122 29.0062 30.1859 29.0813 30.1388 29.143C29.7596 29.7023 27.9232 30.1265 25.7139 30.1265C23.5046 30.1265 21.6682 29.7023 21.2889 29.143C21.2418 29.0813 21.2155 29.0062 21.2139 28.9287C21.2168 28.8368 21.2516 28.749 21.3124 28.6801C21.9917 28.2001 23.706 27.8573 25.7139 27.8573C27.7217 27.8573 29.436 28.2001 30.1153 28.6801C30.1761 28.749 30.211 28.8368 30.2139 28.9287Z" fill="#D5AB44"/>
<path opacity="0.5" d="M30.4286 9.4286V29.1429H30.1393C30.1864 29.0813 30.2126 29.0062 30.2143 28.9286C30.2114 28.8368 30.1765 28.7489 30.1157 28.68C29.4364 28.2 27.7222 27.8572 25.7143 27.8572C23.7064 27.8572 21.9921 28.2 21.3129 28.68C21.2521 28.7489 21.2172 28.8368 21.2143 28.9286C21.216 29.0062 21.2422 29.0813 21.2893 29.1429H21V9.4286C21 9.6129 21.1414 9.7886 21.3986 9.94719C21.651 10.0938 21.921 10.2075 22.2021 10.2858C23.3472 10.5915 24.5294 10.7358 25.7143 10.7143C26.8992 10.7358 28.0814 10.5915 29.2264 10.2858C29.5076 10.2075 29.7776 10.0938 30.03 9.94719C30.2872 9.7886 30.4286 9.6129 30.4286 9.4286Z" fill="#EBFCFB"/>
<path d="M14.0015 24.0428L6.5662 26.6392C6.35247 26.7128 6.21582 26.8459 6.21582 26.9895V31.5289C6.21582 31.7373 6.48912 31.9125 6.85002 31.9353L31.3528 33.5121C31.775 33.5383 32.1447 33.3491 32.1447 33.1039V28.6942C32.1447 28.5313 31.9695 28.3823 31.7172 28.3175L14.6567 24.0182C14.4402 23.9657 14.2134 23.9742 14.0015 24.0428Z" fill="#915C1C"/>
<path d="M14.0015 22.6797L6.5662 25.2744C6.35247 25.3497 6.21582 25.4829 6.21582 25.6248V30.1623C6.21582 30.3708 6.48912 30.5477 6.85002 30.5705L31.3528 32.1473C31.775 32.1753 32.1447 31.9843 32.1447 31.7391V27.3294C32.1447 27.1665 31.9695 27.0193 31.7172 26.9545L14.6567 22.6552C14.4404 22.6009 14.2131 22.6094 14.0015 22.6797Z" fill="#F4D192"/>
<path d="M32.1447 24.0918V28.088C32.1447 28.3333 31.7767 28.5225 31.3545 28.4963L6.85002 26.9195C6.48912 26.895 6.21582 26.7197 6.21582 26.513V22.515C6.21582 22.7235 6.48912 22.9005 6.84829 22.9233L31.3528 24.5C31.775 24.5281 32.1447 24.3371 32.1447 24.0918Z" fill="#F4D192"/>
<path d="M32.1438 24.0481V24.183C32.1438 24.276 32.1069 24.3651 32.0412 24.4308C31.9755 24.4965 31.8863 24.5334 31.7934 24.5334L15.2182 23.5121L13.899 23.4297L6.52681 22.9724C6.43527 22.9598 6.35204 22.9127 6.29409 22.8407C6.23613 22.7687 6.20783 22.6774 6.21495 22.5852V22.34C6.21495 22.1963 6.34634 22.0632 6.56531 21.9896L14.0006 19.3967C14.1452 19.3495 14.2974 19.3305 14.4491 19.3406C14.4946 19.3406 14.5367 19.3406 14.5805 19.3564H14.6033C14.6187 19.3589 14.6339 19.3624 14.6488 19.3669L31.7093 23.6679C31.9686 23.7416 32.1438 23.8852 32.1438 24.0481Z" fill="#FFE0A1"/>
<path d="M9.05482 19.9117C10.2636 19.4475 14.4613 16.4533 14.9291 18.4856C15.29 20.0501 16.4691 19.6051 16.0328 19.712C15.5966 19.8188 8.21563 23.3245 8.21563 23.3245L6.58984 21.1889L9.05482 19.9117Z" fill="#FFE0A1"/>
<path d="M9.71892 23.3245C10.7701 23.8326 8.42767 25.6967 7.64461 25.6967C6.86148 25.6967 6.21499 23.6539 6.21499 22.3399C6.20667 22.0784 6.24463 21.8174 6.32712 21.5691C6.54262 20.9944 7.04714 20.9489 7.6358 20.9489C9.39125 20.9524 8.35059 22.6693 9.71892 23.3245Z" fill="#F4D192"/>
</svg>
