<svg width="125" height="83" viewBox="0 0 125 83" fill="none" xmlns="http://www.w3.org/2000/svg">
<path fill-rule="evenodd" clip-rule="evenodd" d="M41.9439 0C18.7789 0 0 18.8438 0 42.0887C0 61.9139 13.66 78.5378 32.0507 83C31.9886 82.0644 31.9573 81.1204 31.9573 80.169C31.9573 56.924 50.7361 38.0803 73.9011 38.0803C77.3092 38.0803 80.6222 38.4882 83.7945 39.2578C82.3433 17.3329 64.1608 0 41.9439 0Z" fill="#FF38C4"/>
<path d="M54.1036 66.8289V70.1479H55.326V66.8289H54.1036Z" fill="#FF38C4"/>
<path d="M53.9838 53.1681V56.4631H55.326V53.1681H53.9838Z" fill="#FF38C4"/>
<path d="M96.924 63.5821H98.2901L97.6058 62.5125L96.924 63.5821Z" fill="#FF38C4"/>
<path d="M103.18 59.7099L102.508 59.5415V60.7591L103.18 59.7099Z" fill="#FF38C4"/>
<path d="M92.6816 59.5415L92.0345 59.7099L92.6816 60.7272V59.5415Z" fill="#FF38C4"/>
<path d="M112.057 63.9909V67.0694H113.279L114.404 63.9909H112.057Z" fill="#FF38C4"/>
<path d="M121.285 67.0694V63.9909H118.802L119.911 67.0694H121.285Z" fill="#FF38C4"/>
<path fill-rule="evenodd" clip-rule="evenodd" d="M55.326 66.8289H58.298C59.3206 66.8289 60.2155 66.6285 60.9824 66.2276C61.7494 65.8108 62.3406 65.2095 62.7561 64.4238C63.1715 63.6382 63.3792 62.7082 63.3792 61.634C63.3792 60.5597 63.1635 59.6377 62.7321 58.8681C62.3166 58.0985 61.7254 57.5052 60.9585 57.0884C60.2075 56.6715 59.3206 56.4631 58.298 56.4631H55.326V53.1681H58.346C59.6242 53.1681 60.7987 53.3765 61.8692 53.7934C62.9558 54.1943 63.8985 54.7795 64.6975 55.5491C65.5124 56.3027 66.1355 57.2006 66.567 58.2428C67.0144 59.269 67.2381 60.4074 67.2381 61.658C67.2381 62.8926 67.0144 64.031 66.567 65.0732C66.1355 66.1154 65.5204 67.0133 64.7214 67.7669C63.9225 68.5205 62.9798 69.1057 61.8932 69.5226C60.8226 69.9395 59.6562 70.1479 58.3939 70.1479H55.326V66.8289ZM55.326 66.8289H54.1036V70.1479H51.563V53.1681H53.9838V56.4631H55.326V66.8289ZM77.7098 70.4365C76.4316 70.4365 75.2491 70.212 74.1626 69.7631C73.092 69.3141 72.1493 68.6888 71.3344 67.8871C70.5195 67.0855 69.8883 66.1555 69.4409 65.0973C68.9935 64.023 68.7698 62.8686 68.7698 61.634C68.7698 60.3833 68.9935 59.2289 69.4409 58.1707C69.8883 57.1124 70.5115 56.1905 71.3104 55.4048C72.1093 54.6031 73.0441 53.9858 74.1147 53.5529C75.2012 53.104 76.3836 52.8795 77.6619 52.8795C78.9242 52.8795 80.0907 53.104 81.1612 53.5529C82.2478 53.9858 83.1905 54.6031 83.9894 55.4048C84.8044 56.1905 85.4355 57.1204 85.8829 58.1947C86.3303 59.2529 86.554 60.4074 86.554 61.658C86.554 62.8926 86.3303 64.047 85.8829 65.1213C85.4355 66.1795 84.8124 67.1095 84.0134 67.9112C83.2145 68.6968 82.2718 69.3141 81.1852 69.7631C80.1146 70.212 78.9562 70.4365 77.7098 70.4365ZM77.6619 66.9973C78.6686 66.9973 79.5474 66.7728 80.2984 66.3238C81.0654 65.8749 81.6566 65.2496 82.072 64.4479C82.4875 63.6302 82.6952 62.6922 82.6952 61.634C82.6952 60.8323 82.5753 60.1107 82.3357 59.4694C82.096 58.812 81.7524 58.2508 81.305 57.7858C80.8576 57.3048 80.3224 56.9441 79.6992 56.7036C79.092 56.447 78.4129 56.3188 77.6619 56.3188C76.6553 56.3188 75.7684 56.5432 75.0015 56.9922C74.2505 57.4251 73.6673 58.0424 73.2518 58.8441C72.8364 59.6297 72.6286 60.5597 72.6286 61.634C72.6286 62.4356 72.7485 63.1652 72.9882 63.8226C73.2278 64.48 73.5634 65.0492 73.9948 65.5302C74.4422 65.9951 74.9775 66.3559 75.6007 66.6125C76.2238 66.869 76.9109 66.9973 77.6619 66.9973ZM88.9426 53.1681H91.627L97.6058 62.5125L96.924 63.5821H98.2901L97.6058 62.5125L103.563 53.1681H106.271V70.1479H102.508V60.7591L103.18 59.7099L102.508 59.5415V60.7591L98.8414 66.4922H96.3487L92.6816 60.7272V59.5415L92.0345 59.7099L92.6816 60.7272V70.1479H88.9426V53.1681ZM114.957 53.1681H118.361L125 70.1479H121.021L119.911 67.0694H121.285V63.9909H118.802L116.618 57.9356L117.306 56.0542H115.94L116.618 57.9356L114.404 63.9909H112.057V67.0694H113.279L112.153 70.1479H108.246L114.957 53.1681ZM113.279 67.0694L114.404 63.9909H118.802L119.911 67.0694H113.279Z" fill="#FF38C4"/>
<path d="M117.306 56.0542H115.94L116.618 57.9356L117.306 56.0542Z" fill="#FF38C4"/>
<path d="M14.3728 22.9604V27.049H16.1943V22.9604H14.3728Z" fill="#59FFC1"/>
<path fill-rule="evenodd" clip-rule="evenodd" d="M16.1943 35.9959H18.5911C19.4859 35.9959 20.2609 35.8356 20.916 35.5149C21.5711 35.1782 22.0745 34.6731 22.426 33.9997C22.7775 33.3263 22.9533 32.4925 22.9533 31.4984C22.9533 30.5043 22.7695 29.6786 22.402 29.0212C22.0505 28.3638 21.5472 27.8748 20.8921 27.5541C20.2529 27.2174 19.4859 27.049 18.5911 27.049H16.1943V22.9604H18.5911C19.9333 22.9604 21.1637 23.1608 22.2822 23.5617C23.4167 23.9625 24.3994 24.5397 25.2303 25.2933C26.0611 26.0469 26.7003 26.9528 27.1477 28.0111C27.6111 29.0533 27.8428 30.2237 27.8428 31.5225C27.8428 32.8212 27.6111 33.9997 27.1477 35.0579C26.7003 36.1001 26.0611 36.998 25.2303 37.7516C24.3994 38.5052 23.4247 39.0824 22.3062 39.4833C21.1877 39.8841 19.9653 40.0845 18.6391 40.0845H16.1943V35.9959ZM14.6125 40.0845V35.9959H16.1943V27.049H14.3728V22.9604H11.4008V40.0845H14.6125ZM38.2347 40.4212C36.8925 40.4212 35.6541 40.1968 34.5196 39.7478C33.4011 39.2989 32.4184 38.6735 31.5716 37.8719C30.7407 37.0702 30.0935 36.1242 29.6302 35.0339C29.1668 33.9436 28.9351 32.7651 28.9351 31.4984C28.9351 30.2157 29.1588 29.0372 29.6062 27.963C30.0696 26.8887 30.7167 25.9507 31.5476 25.149C32.3785 24.3473 33.3532 23.73 34.4717 23.2971C35.6062 22.8482 36.8445 22.6237 38.1867 22.6237C39.5289 22.6237 40.7593 22.8482 41.8778 23.2971C43.0123 23.73 43.9949 24.3473 44.8258 25.149C45.6567 25.9507 46.2959 26.8967 46.7433 27.987C47.2067 29.0613 47.4383 30.2398 47.4383 31.5225C47.4383 32.7891 47.2067 33.9676 46.7433 35.0579C46.2959 36.1322 45.6567 37.0782 44.8258 37.8959C43.9949 38.6976 43.0203 39.3229 41.9018 39.7719C40.7832 40.2048 39.5609 40.4212 38.2347 40.4212ZM38.1867 36.1883C39.0815 36.1883 39.8565 35.9959 40.5116 35.6111C41.1667 35.2263 41.6701 34.6811 42.0216 33.9756C42.3731 33.2701 42.5489 32.4444 42.5489 31.4984C42.5489 30.7929 42.445 30.1596 42.2373 29.5984C42.0456 29.0212 41.7579 28.5322 41.3745 28.1313C40.991 27.7144 40.5276 27.4018 39.9843 27.1933C39.457 26.9689 38.8578 26.8566 38.1867 26.8566C37.2919 26.8566 36.517 27.049 35.8618 27.4338C35.2067 27.8026 34.7034 28.3398 34.3518 29.0452C34.0003 29.7347 33.8246 30.5524 33.8246 31.4984C33.8246 32.2199 33.9204 32.8693 34.1122 33.4465C34.3199 34.0237 34.6155 34.5208 34.999 34.9377C35.3825 35.3385 35.8379 35.6512 36.3652 35.8756C36.9084 36.0841 37.5156 36.1883 38.1867 36.1883Z" fill="#59FFC1"/>
<path d="M14.6125 35.9959V40.0845H16.1943V35.9959H14.6125Z" fill="#59FFC1"/>
</svg>
