<svg width="45" height="45" viewBox="0 0 45 45" fill="none" xmlns="http://www.w3.org/2000/svg">
<path d="M22.7225 29.9367C33.8375 29.4875 42.6805 25.6437 42.4738 21.3513C42.2672 17.0588 33.0892 13.9433 21.9741 14.3924C10.8591 14.8416 2.01615 18.6854 2.2228 22.9779C2.42945 27.2703 11.6075 30.3859 22.7225 29.9367Z" fill="#ABABAB"/>
<path d="M22.9901 29.2172C34.1457 28.7388 43.0106 24.8586 42.7905 20.5505C42.5704 16.2424 33.3486 13.1378 22.1931 13.6163C11.0375 14.0947 2.17257 17.9749 2.39267 22.283C2.61277 26.5911 11.8346 29.6956 22.9901 29.2172Z" fill="#F2F1F1"/>
<path d="M23.0738 28.1558C32.6721 27.7442 40.2995 24.4053 40.1101 20.6983C39.9207 16.9912 31.9863 14.3197 22.388 14.7314C12.7897 15.143 5.16232 18.4819 5.35172 22.1889C5.54111 25.896 13.4756 28.5674 23.0738 28.1558Z" fill="#D59037"/>
<path d="M22.9082 27.6122C32.325 27.2084 39.8082 23.9326 39.6224 20.2956C39.4366 16.6586 31.6521 14.0376 22.2353 14.4414C12.8184 14.8453 5.3352 18.1211 5.52102 21.7581C5.70684 25.3951 13.4913 28.0161 22.9082 27.6122Z" fill="#F5AB3F"/>
<path d="M22.9707 26.9427C31.561 26.5743 38.3874 23.5862 38.2179 20.2685C38.0484 16.9509 30.9472 14.5601 22.3569 14.9285C13.7666 15.2969 6.94014 18.285 7.10964 21.6027C7.27914 24.9203 14.3804 27.3111 22.9707 26.9427Z" fill="#DD653A"/>
<path d="M12.1094 22.0828C13.4508 22.0252 14.5153 21.53 14.487 20.9767C14.4588 20.4234 13.3484 20.0215 12.007 20.079C10.6656 20.1365 9.60104 20.6317 9.62931 21.185C9.65758 21.7384 10.7679 22.1403 12.1094 22.0828Z" fill="white"/>
<path d="M17.4238 18.5394C18.7652 18.4819 19.8298 17.9867 19.8015 17.4334C19.7732 16.8801 18.6629 16.4781 17.3214 16.5357C15.98 16.5932 14.9155 17.0884 14.9438 17.6417C14.972 18.195 16.0824 18.597 17.4238 18.5394Z" fill="white"/>
<path d="M24.8486 17.9383C26.19 17.8808 27.2546 17.3856 27.2263 16.8323C27.198 16.279 26.0877 15.877 24.7462 15.9346C23.4048 15.9921 22.3403 16.4873 22.3686 17.0406C22.3968 17.5939 23.5072 17.9959 24.8486 17.9383Z" fill="white"/>
<path d="M24.374 24.747C25.7154 24.6895 26.78 24.1943 26.7517 23.641C26.7234 23.0877 25.6131 22.6857 24.2716 22.7433C22.9302 22.8008 21.8657 23.296 21.894 23.8493C21.9222 24.4027 23.0326 24.8046 24.374 24.747Z" fill="white"/>
<path d="M33.8681 21.237C35.2096 21.1794 36.2741 20.6842 36.2458 20.1309C36.2176 19.5776 35.1072 19.1757 33.7658 19.2332C32.4244 19.2907 31.3598 19.7859 31.3881 20.3392C31.4164 20.8926 32.5267 21.2945 33.8681 21.237Z" fill="white"/>
<path d="M27.9576 20.7525C29.2941 20.6985 30.3561 20.2078 30.3295 19.6565C30.303 19.1052 29.198 18.702 27.8614 18.756C26.5249 18.81 25.4629 19.3007 25.4895 19.8521C25.516 20.4034 26.621 20.8065 27.9576 20.7525Z" fill="white"/>
<path d="M17.8877 24.3701C19.2291 24.3125 20.2936 23.8174 20.2654 23.264C20.2371 22.7107 19.1267 22.3088 17.7853 22.3663C16.4439 22.4238 15.3794 22.919 15.4076 23.4724C15.4359 24.0257 16.5463 24.4276 17.8877 24.3701Z" fill="white"/>
<path d="M20.1567 20.9495C20.9689 20.9146 21.6135 20.615 21.5964 20.2802C21.5793 19.9455 20.907 19.7023 20.0947 19.7372C19.2825 19.772 18.6379 20.0716 18.655 20.4064C18.6721 20.7411 19.3444 20.9843 20.1567 20.9495Z" fill="white"/>
<path d="M25.2123 22.3187C26.0246 22.2839 26.6692 21.9842 26.6521 21.6495C26.635 21.3147 25.9626 21.0716 25.1504 21.1064C24.3381 21.1412 23.6936 21.4409 23.7107 21.7756C23.7278 22.1104 24.4001 22.3535 25.2123 22.3187Z" fill="white"/>
<path d="M30.8149 23.2947C31.6271 23.2599 32.2717 22.9603 32.2546 22.6255C32.2375 22.2907 31.5652 22.0476 30.7529 22.0824C29.9407 22.1173 29.2961 22.4169 29.3132 22.7517C29.3303 23.0864 30.0026 23.3296 30.8149 23.2947Z" fill="white"/>
<path d="M31.7289 18.5085C32.5412 18.4736 33.1858 18.174 33.1687 17.8393C33.1516 17.5045 32.4792 17.2613 31.667 17.2962C30.8547 17.331 30.2102 17.6306 30.2273 17.9654C30.2444 18.3002 30.9167 18.5433 31.7289 18.5085Z" fill="white"/>
<path d="M18.1856 18.6568C18.1856 18.6568 17.0218 19.5047 15.5357 19.563C14.0495 19.6213 12.803 18.8821 12.803 18.8821C12.803 18.8821 13.9682 18.0344 15.4545 17.9704C16.9407 17.9063 18.1856 18.6568 18.1856 18.6568Z" fill="#385C2B"/>
<path d="M19.9712 22.5293C19.9712 22.5293 19.0842 23.6113 17.6624 24.0262C16.2406 24.4411 14.8308 24.0069 14.8308 24.0069C14.8308 24.0069 15.721 22.9141 17.1408 22.506C18.5606 22.0978 19.9712 22.5293 19.9712 22.5293Z" fill="#385C2B"/>
<path d="M31.0564 22.8057C31.0564 22.8057 29.8926 23.6536 28.4049 23.7173C26.9172 23.781 25.6722 23.0364 25.6722 23.0364C25.6722 23.0364 26.8319 22.1917 28.3193 22.1236C29.8067 22.0555 31.0564 22.8057 31.0564 22.8057Z" fill="#385C2B"/>
<path d="M34.554 19.7289C34.554 19.7289 33.3898 20.5782 31.9025 20.6406C30.4152 20.7029 29.1698 19.9596 29.1698 19.9596C29.1698 19.9596 30.335 19.112 31.8213 19.0479C33.3075 18.9839 34.554 19.7289 34.554 19.7289Z" fill="#385C2B"/>
<path d="M19.2958 20.3201C18.9377 20.7649 18.4505 21.1086 17.8896 21.3122C17.3152 21.4814 16.7004 21.4996 16.1152 21.3647C16.4727 20.9194 16.9601 20.5755 17.5213 20.3726C18.0958 20.2034 18.7106 20.1852 19.2958 20.3201Z" fill="#385C2B"/>
<path d="M13.387 21.346C13.0291 21.791 12.5419 22.1348 11.9808 22.3381C11.4089 22.5066 10.7969 22.525 10.2141 22.3911C10.5574 21.9349 11.0481 21.5887 11.6172 21.4012C12.1863 21.2138 12.8053 21.1945 13.387 21.346V21.346Z" fill="#385C2B"/>
<path d="M25.8605 21.995C25.8605 21.995 24.7637 22.3121 23.7148 21.9535C22.6658 21.5949 22.0585 20.6963 22.0585 20.6963C22.0585 20.6963 23.153 20.3873 24.2024 20.7388C25.2519 21.0903 25.8605 21.995 25.8605 21.995Z" fill="#385C2B"/>
<path d="M25.2694 19.4816C24.9093 19.9264 24.42 20.2696 23.8574 20.4723C23.283 20.6415 22.6682 20.6592 22.0833 20.5234C22.4448 20.0779 22.9363 19.735 23.5013 19.5342C24.0737 19.3656 24.6863 19.3473 25.2694 19.4816V19.4816Z" fill="#385C2B"/>
<path d="M23.0058 16.225C22.6479 16.67 22.1606 17.0138 21.5996 17.2171C21.025 17.3855 20.4105 17.4032 19.8255 17.2683C20.1839 16.8237 20.671 16.4801 21.2317 16.2762C21.8061 16.107 22.4209 16.0892 23.0058 16.225V16.225Z" fill="#385C2B"/>
<path d="M26.9974 17.3957C26.6399 17.8411 26.1526 18.1849 25.5913 18.3878C25.0183 18.5566 24.4052 18.5752 23.8212 18.4414C24.1787 17.9961 24.6661 17.6522 25.2274 17.4493C25.8004 17.2805 26.4135 17.262 26.9974 17.3957Z" fill="#385C2B"/>
<path d="M23.131 17.4806C22.6107 17.7667 22.0107 17.9079 21.4043 17.8872C20.799 17.8257 20.2263 17.6043 19.7559 17.25C20.2675 16.945 20.8741 16.8023 21.4827 16.8437C22.0914 16.8851 22.6684 17.1084 23.1251 17.4792L23.131 17.4806Z" fill="#385C2B"/>
<path d="M30.1898 17.2595C29.832 17.7045 29.3447 18.0483 28.7837 18.2516C28.2107 18.4204 27.5976 18.4385 27.014 18.3039C27.3724 17.8593 27.8595 17.5156 28.4202 17.3118C28.9931 17.143 29.6062 17.1249 30.1898 17.2595V17.2595Z" fill="#385C2B"/>
</svg>
