<svg width="45" height="45" viewBox="0 0 45 45" fill="none" xmlns="http://www.w3.org/2000/svg">
<path d="M18.3484 17.1151C18.2919 17.063 18.2468 17.0075 18.2139 16.9503L18.3484 17.1151Z" fill="#B76028"/>
<path d="M34.0436 12.6578L34.0599 12.7875C34.0605 13.8432 30.8405 15.5673 26.6439 16.7288C22.4472 17.8902 18.8002 18.0672 18.2582 17.1591L18.2051 17.0384L34.0436 12.6578Z" fill="#B76028"/>
<path d="M33.935 12.5555L18.2465 16.9535C17.9637 15.9155 21.245 14.09 25.5767 12.8758C29.9084 11.6616 33.6509 11.5173 33.935 12.5555Z" fill="#B76028"/>
<path d="M34.0603 12.8108L33.9258 12.6458C34.0005 12.702 34.0458 12.7575 34.0603 12.8108Z" fill="#B76028"/>
<path d="M20.9241 9.89404L20.0977 10.1227L22.385 18.3888L23.2115 18.1601L20.9241 9.89404Z" fill="#EDD398"/>
<path d="M22.7646 18.3053L21.937 18.5379L20.4875 13.2066L19.6592 10.1552L20.4857 9.92122L21.3291 13.0246L22.7646 18.3053Z" fill="#FFE6A9"/>
<path d="M26.3295 11.2876L25.4043 11.3651L26.1797 20.6237L27.1049 20.5463L26.3295 11.2876Z" fill="#EDD398"/>
<path d="M26.6251 20.5075L25.7221 20.5856L25.2459 14.7762L24.9727 11.4523L25.8769 11.3756L26.1544 14.7554L26.6251 20.5075Z" fill="#FFE6A9"/>
<path d="M28.5307 8.41701L27.6055 8.49454L28.3809 17.7532L29.3062 17.6757L28.5307 8.41701Z" fill="#EDD398"/>
<path d="M28.8752 17.7083L27.9707 17.7889L27.504 11.8869L27.2373 8.50993L28.1419 8.42935L28.4126 11.8641L28.8752 17.7083Z" fill="#FFE6A9"/>
<path d="M29.0266 10.1247L28.127 10.3543L30.4246 19.3568L31.3243 19.1272L29.0266 10.1247Z" fill="#EDD398"/>
<path d="M30.8339 19.2714L29.9344 19.5004L28.4743 13.7857L27.6387 10.5148L28.5382 10.2845L29.3872 13.6115L30.8339 19.2714Z" fill="#FFE6A9"/>
<path d="M26.2093 8.28906L25.3145 8.53668L27.7923 17.4913L28.6872 17.2436L26.2093 8.28906Z" fill="#EDD398"/>
<path d="M28.3086 17.3319L27.4181 17.5814L25.8544 11.8672L24.96 8.59756L25.8504 8.34799L26.7609 11.673L28.3086 17.3319Z" fill="#FFE6A9"/>
<path d="M24.6605 9.22749L23.7656 9.47511L26.2435 18.4297L27.1383 18.1821L24.6605 9.22749Z" fill="#EDD398"/>
<path d="M26.7045 18.2335L25.8145 18.4775L24.2416 12.8555L23.3418 9.63773L24.2317 9.39375L25.1475 12.6659L26.7045 18.2335Z" fill="#FFE6A9"/>
<path d="M19.6764 11.7055L18.8994 12.0685L22.5292 19.8392L23.3061 19.4763L19.6764 11.7055Z" fill="#EDD398"/>
<path d="M22.9251 19.7088L22.1496 20.0718L19.8513 15.1195L18.5361 12.2838L19.3104 11.9193L20.6487 14.8021L22.9251 19.7088Z" fill="#FFE6A9"/>
<path d="M18.5026 12.8609L17.7256 13.2238L21.3554 20.9946L22.1323 20.6317L18.5026 12.8609Z" fill="#EDD398"/>
<path d="M21.7562 20.799L20.982 21.1633L18.6823 16.2103L17.3672 13.375L18.1427 13.0108L19.4798 15.893L21.7562 20.799Z" fill="#FFE6A9"/>
<path d="M29.9447 8.51413L29.0498 8.76175L31.5277 17.7163L32.4226 17.4687L29.9447 8.51413Z" fill="#EDD398"/>
<path d="M32.0657 17.5618L31.1433 17.8081L29.5051 12.0869L28.5674 8.8124L29.4884 8.56593L30.4416 11.8957L32.0657 17.5618Z" fill="#FFE6A9"/>
<path d="M33.1567 9.35635L32.0459 9.42209L32.5965 18.7233L33.7074 18.6576L33.1567 9.35635Z" fill="#EDD398"/>
<path d="M32.9789 17.5089L31.8972 17.5822L31.5418 11.6981L31.3389 8.33041L32.4204 8.25835L32.6264 11.6811L32.9789 17.5089Z" fill="#FFE6A9"/>
<path d="M22.5189 10.7536L21.6631 10.8083L22.2102 19.3676L23.0661 19.3128L22.5189 10.7536Z" fill="#EDD398"/>
<path d="M22.6562 19.3774L21.7989 19.4313L21.4481 14.0019L21.248 10.8957L22.1041 10.8416L22.309 14.0004L22.6562 19.3774Z" fill="#FFE6A9"/>
<path d="M31.162 6.57323L30.2354 6.63246L30.9753 18.2079L31.9019 18.1486L31.162 6.57323Z" fill="#EDD398"/>
<path d="M31.4029 18.1343L30.5122 18.1979L30.0888 10.8463L29.8467 6.63889L30.7373 6.57529L30.9832 10.8544L31.4029 18.1343Z" fill="#FFE6A9"/>
<path d="M22.8778 9.03029L21.8604 9.43L25.4476 18.5611L26.465 18.1614L22.8778 9.03029Z" fill="#EDD398"/>
<path d="M25.9422 18.2924L24.9336 18.6906L22.6731 12.9122L21.3789 9.60476L22.3888 9.20682L23.7039 12.5695L25.9422 18.2924Z" fill="#FFE6A9"/>
<path d="M22.8198 12.1673L22.0107 12.7712L27.4288 20.0301L28.2378 19.4263L22.8198 12.1673Z" fill="#EDD398"/>
<path d="M27.9207 19.6682L27.1061 20.2721L23.6306 15.6438L21.6406 12.9946L22.4566 12.3896L24.4793 15.083L27.9207 19.6682Z" fill="#FFE6A9"/>
<path d="M22.986 14.365L22.2871 14.982L27.8224 21.2522L28.5213 20.6352L22.986 14.365Z" fill="#EDD398"/>
<path d="M28.2476 20.9138L27.549 21.527L24.0269 17.5637L22.0117 15.2959L22.7102 14.6841L24.7598 16.9895L28.2476 20.9138Z" fill="#FFE6A9"/>
<path d="M34.0157 12.8061L35.5529 24.5228C35.6018 24.9112 35.5093 25.3041 35.2922 25.6301C35.0751 25.9562 34.7478 26.1938 34.3697 26.2998L25.0274 28.8718C24.6474 28.9773 24.2417 28.9421 23.8855 28.7728C23.5293 28.6034 23.2465 28.3113 23.0896 27.9505L18.3486 17.1154C18.8926 18.0103 22.5019 17.8365 26.6589 16.6937C30.8159 15.551 34.0166 13.8483 34.0157 12.8061Z" fill="#D16B28"/>
<path d="M34.1557 28.281C32.9208 29.3758 15.405 33.4144 12.2127 33.0127C9.02035 32.611 2.02656 30.3686 2.23401 29.1683C2.44145 27.9682 21.4423 26.3695 24.177 26.4913C26.9116 26.6132 35.3904 27.1861 34.1557 28.281Z" fill="#282219"/>
<path d="M34.1553 28.281C33.0835 28.7404 15.9299 32.7723 12.7425 32.3706C9.55513 31.9689 2.02625 30.3686 2.23369 29.1684C2.44114 27.9682 21.4469 25.3422 24.1815 25.464C26.9162 25.5858 35.6716 27.629 34.1553 28.281Z" fill="#3F3729"/>
<path d="M26.5161 27.2651C26.5161 27.8742 22.3902 30.4393 17.7195 30.7076C12.0642 31.0369 9.29492 29.4531 9.29492 28.8439C9.29492 28.2348 13.2462 28.9362 17.7656 27.7409C22.5055 26.4896 26.5161 26.6559 26.5161 27.2651Z" fill="#2B251A"/>
<path d="M20.3145 22.7804C20.3145 22.7804 21.8901 20.3865 22.7198 20.4754C23.0491 20.51 22.4811 21.7662 22.0465 21.9292C22.0465 21.9292 23.4755 20.994 23.5512 21.1669C23.627 21.3398 22.0415 23.3945 21.4472 23.5542L20.3145 22.7804Z" fill="#D15F56"/>
<path d="M22.6497 21.8107C22.6497 21.8107 21.652 22.5697 21.0264 22.7639L22.6497 21.8107Z" fill="#BF4E49"/>
<path d="M22.0125 21.0928C22.0125 21.0928 21.5713 22.107 21.1152 22.5202L22.0125 21.0928Z" fill="#BF4E49"/>
<path d="M17.5764 25.3487C17.5431 25.3798 17.5123 25.4133 17.4842 25.4491C17.432 25.5159 17.3698 25.5742 17.2998 25.622C17.3146 25.6072 17.3278 25.5908 17.3426 25.5726C17.4115 25.4891 17.49 25.4139 17.5764 25.3487Z" fill="#E8B152"/>
<path d="M19.7651 23.1821C19.3338 23.5887 19.0473 24.1156 19.0786 24.2917C19.0918 24.3707 19.0193 24.4481 18.8975 24.5321C18.9119 24.5165 18.9227 24.498 18.9293 24.4778C18.9358 24.4576 18.9378 24.4362 18.9353 24.4152C18.904 24.2225 19.2547 23.6035 19.7651 23.1821Z" fill="#E8B152"/>
<path d="M21.4674 24.4268C21.2089 24.8631 21.1678 25.79 20.6738 26.4354C20.3616 26.828 19.9326 27.111 19.4489 27.2437C19.4489 27.2437 18.7212 28.0076 18.3574 28.3962C17.9935 28.7847 16.2171 28.9247 16.2171 28.9247C15.5289 29.6952 13.168 28.8769 12.0633 28.4044C12.0303 28.3913 11.9974 28.3781 11.9677 28.3633C11.8369 28.3084 11.7122 28.24 11.5957 28.1591L11.6846 28.1986C12.7432 28.6629 15.2276 29.5569 15.9372 28.7617C15.9372 28.7617 17.7071 28.6283 18.0775 28.2315C18.4479 27.8348 19.169 27.0791 19.169 27.0791C19.6531 26.9472 20.0823 26.6639 20.3939 26.2708C20.8878 25.6254 20.9339 24.7001 21.1941 24.2687C21.4542 23.8374 21.7835 23.541 21.4246 23.1442C21.2469 22.9643 21.0478 22.8067 20.8319 22.675H20.8385C21.1539 22.8469 21.4447 23.0607 21.7028 23.3106C22.0584 23.7057 21.7275 24.0037 21.4674 24.4268Z" fill="#E8B152"/>
<path d="M20.8383 22.6734H20.8268H20.7494L20.6802 22.6816C20.5841 22.6955 20.49 22.7215 20.4004 22.759L20.3247 22.7903C20.2176 22.8398 20.116 22.9005 20.0217 22.9714C20.0052 22.9813 19.9921 22.9928 19.9772 23.0027C19.9046 23.0559 19.8358 23.1142 19.7715 23.1772C19.2611 23.592 18.9104 24.2177 18.9483 24.4103C18.9508 24.4313 18.9487 24.4528 18.9422 24.4729C18.9356 24.4931 18.9248 24.5116 18.9104 24.5272C18.5959 24.7412 17.9505 24.9865 17.5933 25.3504C17.5008 25.4161 17.4167 25.493 17.343 25.5792C17.3282 25.5973 17.3151 25.6138 17.3002 25.6287C17.0072 25.9579 16.831 25.7505 16.5956 25.5776C16.4599 25.5701 16.3322 25.5112 16.2383 25.413C16.1408 25.3294 16.0293 25.2636 15.9091 25.2187C15.876 25.2069 15.8418 25.1986 15.807 25.194C15.4618 25.1416 15.1237 25.0499 14.7994 24.9207C14.6255 24.8548 14.4598 24.7692 14.3055 24.6655C14.2182 24.6154 14.1433 24.5463 14.0863 24.4634C14.0293 24.3805 13.9917 24.2858 13.9762 24.1864C13.9713 24.1306 13.9609 24.0755 13.9449 24.0218C13.9396 23.9917 13.9324 23.962 13.9235 23.9329C13.8527 23.7629 13.7524 23.6068 13.6271 23.4719C13.4514 23.2749 13.2479 23.1046 13.0229 22.9664C12.9538 22.9236 12.8813 22.8825 12.8073 22.8446C12.5573 22.7144 12.2875 22.6265 12.0088 22.5845C11.1246 22.4511 10.8826 22.731 10.0693 23.4093C10.1072 23.3764 10.145 23.3402 10.1862 23.3089C11.0193 22.6141 11.2531 22.321 12.1619 22.4527C12.4413 22.494 12.7117 22.582 12.962 22.7129C13.0361 22.7508 13.1069 22.7919 13.176 22.8347C13.721 23.164 14.1161 23.6579 14.1375 24.053C14.1394 24.0819 14.1438 24.1106 14.1507 24.1387C14.1576 24.1663 14.167 24.1933 14.1787 24.2194C14.2435 24.345 14.3393 24.4521 14.457 24.5305C14.6111 24.635 14.7768 24.7212 14.9509 24.7873C15.2748 24.9156 15.6123 25.0067 15.9568 25.059C15.9922 25.0643 16.0269 25.0731 16.0605 25.0853C16.1777 25.1308 16.2863 25.1959 16.3816 25.278C16.4756 25.3759 16.6032 25.4347 16.7388 25.4426C16.8667 25.413 16.9785 25.3359 17.0516 25.2269C17.506 24.6688 18.5647 24.3626 18.6453 24.0744C18.81 23.4455 19.5525 22.461 20.5123 22.5005C20.509 22.4939 20.6094 22.5416 20.8383 22.6734Z" fill="#E8B152"/>
<path d="M13.6337 23.4636C13.5131 23.3555 13.3831 23.2585 13.2451 23.1739C13.1759 23.131 13.1052 23.0899 13.0311 23.052C12.7808 22.9211 12.5104 22.8331 12.2309 22.7919C11.3271 22.6668 11.0933 22.9565 10.2553 23.648C9.53745 24.244 9.19338 25.1841 9.19338 25.6878C9.17526 25.6401 9.16043 25.5973 9.14729 25.5578C9.02214 25.1792 9.3119 24.1123 10.0643 23.4175C10.8825 22.731 11.1246 22.4511 12.0152 22.5762C12.2939 22.6182 12.5638 22.7062 12.8138 22.8364C12.8878 22.8742 12.9603 22.9153 13.0295 22.9582C13.2543 23.0964 13.4579 23.2666 13.6337 23.4636Z" fill="#F7C561"/>
<path d="M21.7802 23.4125C21.7391 23.6282 21.3423 24.0069 21.1859 24.267C20.9258 24.6984 20.8813 25.6236 20.3857 26.269C20.2808 26.4028 20.1616 26.5248 20.0302 26.6328C19.7743 26.8396 19.4783 26.991 19.1609 27.0773L19.0522 27.1926C18.8349 27.4215 18.3459 27.9351 18.0643 28.238C18.0331 28.2705 17.9976 28.2988 17.959 28.322C17.4437 28.6513 15.9307 28.7682 15.9307 28.7682C15.2211 29.5634 12.7367 28.6694 11.678 28.2051L11.5891 28.1656C11.1562 27.8627 11.1298 27.5351 10.8894 27.3045C10.8037 27.225 10.7022 27.1644 10.5915 27.1267C10.5532 27.1119 10.5142 27.0993 10.4745 27.0889C10.4581 27.0889 10.4416 27.0889 10.4252 27.0741C10.2714 27.0252 10.1267 26.9512 9.9971 26.8551C9.62701 26.5483 9.34947 26.1448 9.19531 25.6895C9.19531 25.1856 9.53938 24.2456 10.2573 23.6496C11.0903 22.9548 11.3241 22.6618 12.2329 22.7935C12.5123 22.8348 12.7828 22.9227 13.033 23.0536C13.1071 23.0915 13.1779 23.1326 13.2471 23.1754C13.3851 23.2601 13.5151 23.3571 13.6356 23.4652C13.7586 23.6027 13.8562 23.7611 13.9237 23.9328C13.9345 23.9586 13.9438 23.9849 13.9517 24.0118C13.9676 24.0655 13.9781 24.1207 13.983 24.1764C13.9985 24.2759 14.0361 24.3705 14.0931 24.4534C14.1501 24.5364 14.225 24.6054 14.3122 24.6556C14.4666 24.7592 14.6323 24.8449 14.8061 24.9107C15.1305 25.0399 15.4686 25.1316 15.8138 25.184C15.8486 25.1886 15.8828 25.1969 15.9158 25.2087C16.0362 25.2536 16.1476 25.3194 16.2451 25.403C16.3389 25.5013 16.4667 25.5601 16.6024 25.5676C16.8378 25.7323 17.0139 25.9446 17.307 25.6187C17.377 25.5709 17.4392 25.5126 17.4914 25.4458C17.5195 25.41 17.5503 25.3764 17.5836 25.3454C17.9442 24.9881 18.5896 24.7428 18.9007 24.5222C19.0225 24.4382 19.095 24.3575 19.0818 24.2818C19.0506 24.1056 19.337 23.5788 19.7684 23.1721C19.8327 23.1091 19.9015 23.0508 19.9742 22.9976C19.9884 22.9864 20.0033 22.976 20.0186 22.9664C20.1129 22.8955 20.2145 22.8348 20.3216 22.7853L20.3973 22.7539C20.4869 22.7165 20.581 22.6905 20.6772 22.6766L20.7463 22.6684H20.8237C21.0476 22.8132 21.2896 22.833 21.4312 22.9976C21.5728 23.1623 21.8049 23.2742 21.7802 23.4125Z" fill="#F7C561"/>
<path d="M13.0498 24.5322C13.3412 24.7973 12.2085 26.0798 11.7656 25.9349L13.0498 24.5322Z" fill="#E8B152"/>
<path d="M16.6298 27.4346C16.6841 27.5663 16.7038 28.3517 16.0996 28.2364L16.6298 27.4346Z" fill="#E8B152"/>
<path opacity="0.5" d="M13.9765 23.6628C11.7654 23.2907 10.0005 26.8535 11.6831 28.2134C12.7154 29.0366 15.888 29.7659 17.075 29.6408C18.262 29.5157 21.1136 29.7873 21.9598 28.5658C22.8061 27.3441 23.4218 26.516 22.0141 26.4106C20.6065 26.3052 14.7882 26.9424 14.836 25.7619C14.8837 24.5815 13.9765 23.6628 13.9765 23.6628Z" fill="#E8B152"/>
<path d="M23.2783 24.0169C23.2783 24.0169 24.8539 21.6246 25.6821 21.7119C26.0113 21.7481 25.4433 23.0043 25.0086 23.1656C25.0086 23.1656 26.4377 22.2322 26.5135 22.405C26.5892 22.5779 25.0037 24.6326 24.4094 24.7923L23.2783 24.0169Z" fill="#D15F56"/>
<path d="M25.6126 23.0487C25.6126 23.0487 24.6149 23.8077 23.9893 24.002L25.6126 23.0487Z" fill="#BF4E49"/>
<path d="M24.9744 22.3309C24.9744 22.3309 24.5332 23.3467 24.0771 23.7583L24.9744 22.3309Z" fill="#BF4E49"/>
<path d="M20.5386 26.5884C20.5053 26.6188 20.4745 26.6519 20.4464 26.6872C20.3956 26.7547 20.3338 26.8131 20.2637 26.8601L20.3048 26.8123C20.3745 26.7296 20.4529 26.6545 20.5386 26.5884Z" fill="#E8B152"/>
<path d="M22.727 24.4268C22.2957 24.8318 22.0109 25.3602 22.0405 25.5348C22.0537 25.6138 21.9812 25.6912 21.8594 25.7768C21.8872 25.7444 21.9014 25.7025 21.8989 25.6599C21.8659 25.4623 22.2183 24.8367 22.727 24.4268Z" fill="#E8B152"/>
<path d="M24.4304 25.6715C24.1702 26.1012 24.1274 27.0297 23.6302 27.6735C23.318 28.066 22.889 28.3492 22.4053 28.4818C22.4053 28.4818 21.6776 29.2457 21.3154 29.6343C20.9532 30.0228 19.1751 30.1644 19.1751 30.1644C18.4869 30.9349 16.1277 30.1167 15.0213 29.6442L14.9258 29.603C14.7952 29.547 14.6706 29.478 14.5537 29.3972L14.6426 29.4384C15.7012 29.901 18.1856 30.795 18.8969 30.0014C18.8969 30.0014 20.6651 29.8681 21.0372 29.4713C21.4092 29.0745 22.1287 28.309 22.1287 28.309C22.6127 28.177 23.0419 27.8937 23.3536 27.5006C23.8475 26.8569 23.8953 25.93 24.1537 25.5002C24.4122 25.0705 24.7432 24.7726 24.3843 24.3741C24.2065 24.1947 24.0074 24.0377 23.7915 23.9066H23.8014C24.1171 24.0774 24.4079 24.2907 24.6658 24.5404C25.0197 24.9437 24.6888 25.25 24.4304 25.6715Z" fill="#E8B152"/>
<path d="M23.8015 23.913H23.79C23.7642 23.9114 23.7383 23.9114 23.7126 23.913C23.6868 23.9174 23.6615 23.924 23.6368 23.9328C23.5403 23.9467 23.4458 23.9722 23.3553 24.0085L23.2812 24.0414C23.1746 24.0879 23.0731 24.1452 22.9783 24.2127L22.9338 24.2439C22.863 24.2983 22.7939 24.3575 22.728 24.4185C22.2193 24.8334 21.867 25.459 21.9048 25.6516C21.9073 25.6942 21.8932 25.7361 21.8653 25.7685C21.5509 25.9809 20.9071 26.2278 20.5482 26.5917C20.4625 26.6578 20.3842 26.7329 20.3144 26.8156L20.2733 26.8634C19.9802 27.1926 19.8041 26.9868 19.5687 26.8139C19.4331 26.8061 19.3054 26.7473 19.2114 26.6493C19.1136 26.5665 19.0022 26.5013 18.8821 26.4567C18.8484 26.445 18.8137 26.4367 18.7784 26.432C18.434 26.3782 18.0967 26.2866 17.7724 26.1587C17.5984 26.0925 17.4326 26.0063 17.2785 25.9018C17.1907 25.8507 17.1157 25.7803 17.0592 25.6958C17.0028 25.6114 16.9663 25.5152 16.9525 25.4145C16.9484 25.3587 16.9379 25.3034 16.9213 25.2499C16.9139 25.2224 16.9045 25.1954 16.8933 25.1692C16.8221 24.9994 16.7218 24.8434 16.5969 24.7082C16.4215 24.5114 16.2179 24.3416 15.9927 24.2044C15.9235 24.1616 15.8528 24.1205 15.7787 24.0826C15.5284 23.9517 15.2579 23.8637 14.9785 23.8224C14.0846 23.6974 13.8458 23.9772 13.0342 24.6556C13.072 24.621 13.1082 24.5864 13.1494 24.5535C13.9841 23.8587 14.2163 23.5656 15.125 23.6974C15.4045 23.7386 15.6749 23.8265 15.9252 23.9574C15.9993 23.9953 16.0701 24.0365 16.1392 24.0793C16.6842 24.4185 17.0793 24.9025 17.1007 25.2992C17.1024 25.3282 17.1074 25.357 17.1156 25.3849C17.1227 25.4125 17.132 25.4395 17.1435 25.4656C17.2082 25.5923 17.3046 25.7 17.4234 25.7784C17.5777 25.8821 17.7434 25.9677 17.9173 26.0335C18.2411 26.1628 18.5786 26.2545 18.9233 26.3069C18.9586 26.3116 18.9933 26.3198 19.027 26.3316C19.1472 26.3767 19.2586 26.4425 19.3563 26.5258C19.4503 26.6238 19.5779 26.6826 19.7135 26.6905C19.8395 26.6584 19.9478 26.5779 20.0148 26.4666C20.4692 25.9084 21.5278 25.6006 21.6085 25.3141C21.7731 24.6835 22.5173 23.699 23.4755 23.7385C23.4722 23.7319 23.571 23.7813 23.8015 23.913Z" fill="#E8B152"/>
<path d="M16.5956 24.7018C16.4742 24.5946 16.3442 24.4978 16.207 24.412C16.1379 24.3708 16.0671 24.328 15.993 24.2901C15.7424 24.1599 15.472 24.0721 15.1929 24.03C14.289 23.9049 14.0568 24.1947 13.2172 24.8861C12.4994 25.4838 12.1553 26.4239 12.1569 26.9276C12.1372 26.8799 12.1223 26.8354 12.1092 26.7959C11.9841 26.4189 12.2738 25.3521 13.0279 24.6556C13.8395 23.9773 14.0783 23.6975 14.9722 23.8226C15.2517 23.8639 15.5221 23.9518 15.7724 24.0827C15.8464 24.1205 15.9172 24.1617 15.9864 24.2045C16.2129 24.3393 16.4181 24.5069 16.5956 24.7018Z" fill="#F7C561"/>
<path d="M24.7421 24.6523C24.7026 24.8663 24.3041 25.2466 24.1477 25.5067C23.8893 25.9364 23.8432 26.8634 23.3476 27.5071C23.2444 27.6425 23.125 27.7646 22.992 27.8709C22.7367 28.0785 22.4405 28.23 22.1227 28.3155L22.0141 28.4323C21.7967 28.6595 21.3094 29.1748 21.0262 29.4778C20.9952 29.5099 20.9603 29.5381 20.9225 29.5618C20.4072 29.891 18.8942 30.0079 18.8942 30.0079C18.1829 30.8015 15.6986 29.9075 14.6399 29.4448L14.551 29.4037C14.1213 29.1008 14.0884 28.7715 13.8546 28.5426C13.7692 28.4623 13.6676 28.4011 13.5566 28.3632C13.5204 28.35 13.4809 28.3369 13.4397 28.3253C13.3986 28.3138 13.4068 28.3253 13.3903 28.3105C13.2366 28.2627 13.0923 28.1886 12.9639 28.0916C12.5933 27.786 12.3155 27.3828 12.1621 26.9276C12.1621 26.4238 12.5045 25.4837 13.2224 24.886C14.0571 24.1913 14.2892 23.8982 15.198 24.0299C15.4773 24.072 15.7476 24.1599 15.9982 24.29C16.0722 24.3279 16.1431 24.3707 16.2122 24.4119C16.3495 24.4976 16.4794 24.5946 16.6008 24.7017C16.7257 24.8368 16.8259 24.9929 16.8971 25.1626C16.9084 25.1888 16.9177 25.2158 16.9251 25.2433C16.9417 25.2968 16.9522 25.352 16.9564 25.4079C16.9707 25.5067 17.007 25.601 17.0625 25.6839C17.1181 25.7668 17.1915 25.8362 17.2774 25.887C17.4315 25.9915 17.5973 26.0777 17.7713 26.1438C18.0955 26.2717 18.4329 26.3634 18.7773 26.4172C18.8126 26.4219 18.8473 26.4301 18.881 26.4419C19.0011 26.4865 19.1125 26.5516 19.2103 26.6345C19.3043 26.7325 19.4319 26.7913 19.5675 26.7991C19.8029 26.9638 19.9791 27.1762 20.2722 26.8485C20.3424 26.8016 20.4042 26.7431 20.4549 26.6756C20.483 26.6404 20.5139 26.6073 20.5471 26.5769C20.9093 26.2196 21.5531 25.9727 21.8642 25.7537C21.986 25.6681 22.0585 25.5891 22.0453 25.5117C22.0157 25.3371 22.3005 24.8087 22.7319 24.4036C22.7977 24.3428 22.8669 24.2835 22.9377 24.2292L22.9821 24.1978C23.077 24.1275 23.1791 24.0673 23.2867 24.0184L23.3608 23.9855C23.4507 23.9574 23.5435 23.9397 23.6374 23.9328C23.6596 23.9283 23.6822 23.9256 23.7049 23.9246C23.7306 23.9229 23.7565 23.9229 23.7823 23.9246C24.0062 24.0678 24.2482 24.0892 24.3898 24.2538C24.5313 24.4185 24.7668 24.5106 24.7421 24.6523Z" fill="#F7C561"/>
<path d="M16.0107 25.7719C16.3021 26.0369 15.1694 27.3194 14.7266 27.1746L16.0107 25.7719Z" fill="#E8B152"/>
<path d="M19.5917 28.6745C19.646 28.8045 19.6674 29.5899 19.0615 29.4763L19.5917 28.6745Z" fill="#E8B152"/>
<path d="M7.44028 28.6908C7.44028 29.3494 7.03528 29.3691 6.5331 29.3691C6.03098 29.3691 5.62598 29.3444 5.62598 28.6908C5.62598 28.0373 6.03263 26.6411 6.5331 26.6411C7.03364 26.6411 7.44028 28.0389 7.44028 28.6908Z" fill="#F2ECE4"/>
</svg>
