<svg width="45" height="45" viewBox="0 0 45 45" fill="none" xmlns="http://www.w3.org/2000/svg">
<path d="M26.6881 19.4771L6.02272 28.224L39.5983 26.4507L26.6881 19.4771Z" fill="#FFFCF0" stroke="#A07D36" stroke-width="0.766023" stroke-linecap="round" stroke-linejoin="round"/>
<path d="M39.5954 26.4543L6.02051 28.2257L6.11611 30.0377L39.691 28.2664L39.5954 26.4543Z" fill="#A07D34" stroke="#A07D36" stroke-width="0.766023" stroke-linecap="round" stroke-linejoin="round"/>
<path d="M6.86678 26.691C5.52424 26.783 4.49493 28.6251 4.85093 28.6294C5.20692 28.6338 6.29287 28.1997 6.96326 28.5169C7.63366 28.834 11.4114 30.5766 11.6381 29.6373C11.8648 28.6981 14.6045 28.4232 14.6045 28.4232C14.6045 28.4232 14.7887 30.0351 15.7798 29.6685C16.7709 29.3019 17.2861 28.5453 17.79 28.3643C18.2939 28.1832 19.9953 29.9909 20.7807 29.1121C21.5662 28.2332 24.6342 26.6803 25.5621 27.7557C26.49 28.8311 26.8346 28.5716 27.1779 28.0101C27.5212 27.4485 29.2669 29.3109 29.6381 29.205C30.0093 29.0991 30.784 27.6674 30.784 27.6674C30.784 27.6674 30.692 29.657 32.1833 29.403C33.6746 29.149 34.3862 28.3594 34.4772 27.8462C34.5683 27.3331 37.4565 29.4767 38.0533 28.4955C38.6501 27.5144 40.4954 27.8588 40.0818 26.7765C39.6682 25.6943 39.4841 25.5949 38.0348 25.5387C36.5856 25.4826 6.86678 26.691 6.86678 26.691Z" fill="#648E21"/>
<path d="M37.6919 23.9071L7.14342 25.5188C6.67157 25.5437 6.30924 25.9464 6.33414 26.4182L6.36194 26.9453C6.38684 27.4172 6.78953 27.7795 7.26137 27.7546L37.8098 26.1429C38.2817 26.118 38.644 25.7153 38.6191 25.2435L38.5913 24.7164C38.5664 24.2446 38.1637 23.8822 37.6919 23.9071Z" fill="#E1B186"/>
<path d="M37.9871 23.4203L6.80132 25.0656C6.50547 25.0812 6.27828 25.3337 6.29389 25.6296L6.32669 26.2514C6.3423 26.5473 6.5948 26.7745 6.89065 26.7589L38.0764 25.1136C38.3723 25.098 38.5994 24.8455 38.5838 24.5496L38.551 23.9278C38.5354 23.6319 38.2829 23.4047 37.9871 23.4203Z" fill="#FFCF23"/>
<path d="M7.87716 22.9171C7.87716 22.9171 5.44067 23.3464 5.57834 24.2655C5.71602 25.1845 9.18676 27.0466 12.5288 26.7367C15.8708 26.4269 18.5533 24.0063 18.5198 22.9652C18.4862 21.924 7.87716 22.9171 7.87716 22.9171Z" fill="#E25123"/>
<path d="M17.319 21.7433C17.319 21.7433 14.8825 22.1726 15.0185 23.0912C15.1545 24.0098 18.6301 25.8607 21.9653 25.5562C25.3005 25.2516 27.9915 22.8262 27.9567 21.7829C27.922 20.7397 17.319 21.7433 17.319 21.7433Z" fill="#E25123"/>
<path d="M27.4863 21.9838C27.4863 21.9838 25.0498 22.4131 25.1858 23.3317C25.3218 24.2503 28.7964 26.1117 32.1379 25.8035C35.4795 25.4953 38.1625 23.073 38.1277 22.0298C38.093 20.9865 27.4863 21.9838 27.4863 21.9838Z" fill="#E25123"/>
<path d="M6.61739 22.2708C5.27651 22.3633 4.24387 24.2045 4.59986 24.2088C4.95585 24.2132 6.04348 23.7796 6.71387 24.0967C7.38426 24.4138 11.162 26.1565 11.3887 25.2172C11.6154 24.2779 14.3556 24.0014 14.3556 24.0014C14.3556 24.0014 14.5397 25.6133 15.5308 25.2467C16.5219 24.8801 17.0355 24.1231 17.5411 23.9424C18.0466 23.7618 19.7463 25.5691 20.5318 24.6902C21.3173 23.8114 24.3852 22.2584 25.3131 23.3339C26.2411 24.4093 26.5839 24.1494 26.9312 23.5799C27.2784 23.0104 29.0201 24.8807 29.3897 24.7744C29.7593 24.6681 30.5373 23.2372 30.5373 23.2372C30.5373 23.2372 30.4453 25.2269 31.9416 24.9742C33.4378 24.7216 34.1445 23.9305 34.2355 23.4174C34.3266 22.9043 37.2131 25.0474 37.8116 24.0667C38.4101 23.086 40.2553 23.4304 39.8417 22.3482C39.4281 21.2659 39.244 21.1666 37.7948 21.1104C36.3455 21.0542 6.61739 22.2708 6.61739 22.2708Z" fill="#648E21"/>
<path d="M26.2203 12.8304L5.55495 21.5773L39.1305 19.804L26.2203 12.8304Z" fill="#FFF8DA" stroke="#A07D36" stroke-width="0.766023" stroke-linecap="round" stroke-linejoin="round"/>
<path d="M39.1295 19.8074L5.55469 21.5787L5.65029 23.3908L39.2251 21.6195L39.1295 19.8074Z" fill="#A07D34" stroke="#A07D36" stroke-width="0.766023" stroke-linecap="round" stroke-linejoin="round"/>
</svg>
