<svg width="45" height="45" viewBox="0 0 45 45" fill="none" xmlns="http://www.w3.org/2000/svg">
<path d="M17.7539 10.8933C17.7539 10.8933 7.11065 12.3631 6.68141 23.2523C6.25214 34.1414 30.4967 24.2748 31.1353 20.8994C31.7739 17.5239 28.7274 8.44207 17.7539 10.8933Z" fill="#EED776"/>
<path d="M23.162 10.5707C22.5675 10.975 19.6809 10.2821 19.6344 10.8277C19.588 11.3733 16.4621 9.76754 16.97 11.018C17.478 12.2683 15.1785 11.0788 14.8464 10.9486C14.5144 10.8183 14.4385 11.3828 14.1055 11.9412C13.7725 12.4996 13.2604 13.8031 12.6183 13.6034C11.9762 13.4037 9.3446 13.311 10.2044 14.6441C11.0642 15.9772 7.67414 15.1809 8.13879 16.76C8.60345 18.3389 7.03552 17.863 7.52088 18.899C8.00624 19.9349 5.84638 21.5605 6.94822 22.104C8.05008 22.6474 5.94291 24.1463 6.98654 24.472C8.03022 24.7977 7.75527 27.3588 8.40642 26.5015C9.05757 25.6442 7.62785 23.9281 8.26319 23.0427C8.89852 22.1574 7.811 19.0175 8.70972 19.2717C9.60837 19.526 12.2166 20.9323 11.7553 19.1348C11.2939 17.3373 10.3772 16.2428 11.7482 16.2449C13.1193 16.2471 13.8107 15.71 13.794 15.0524C13.7774 14.3948 14.3093 13.8953 14.9323 14.0817C15.5551 14.2682 15.9088 14.1322 16.1512 13.2711C16.3937 12.41 16.0079 12.5963 17.3695 12.4664C18.731 12.3365 18.4838 11.1991 20.0444 11.674C21.6049 12.149 22.3101 13.268 22.9495 12.1475C23.5888 11.027 25.1456 14.1775 25.9607 13.6799C26.7757 13.1824 27.5297 13.9538 28.3929 14.6701C29.2561 15.3863 30.1674 16.7158 29.9752 15.6162C29.783 14.5167 28.7919 13.225 27.9993 13.1433C27.2068 13.0615 26.4746 12.5333 26.2186 11.8722C25.9626 11.2109 26.0623 8.60315 23.162 10.5707Z" fill="#86B240"/>
<path d="M14.9734 16.4454C14.9734 16.4454 16.3757 14.8249 15.7961 14.2764C15.2165 13.7279 11.8729 14.3519 9.79265 16.3852C7.71243 18.4185 7.21094 21.5388 7.79555 22.231C8.38016 22.9231 14.9734 16.4454 14.9734 16.4454Z" fill="#E35325"/>
<path d="M19.6164 15.5265C19.6164 15.5265 20.9042 15.0353 20.7242 14.2522C20.5442 13.4691 18.4148 12.0244 16.6149 12.4552C14.815 12.8858 13.6178 15.1105 13.7582 16.0114C13.8987 16.9124 19.6164 15.5265 19.6164 15.5265Z" fill="#E35325"/>
<path d="M28.3622 15.3151C28.3622 15.3151 29.1296 14.1558 28.5357 13.6252C27.9418 13.0944 25.3789 13.1737 24.1584 14.5863C22.9379 15.9989 23.24 18.5152 23.8707 19.1649C24.5014 19.8147 28.3622 15.3151 28.3622 15.3151Z" fill="#E35325"/>
<path d="M20.9308 14.0797C20.8781 14.4794 20.671 14.8415 20.3551 15.0863C20.0392 15.3311 19.6404 15.4386 19.2463 15.3851C18.4262 15.2738 16.4513 15.0999 16.5621 14.2604C16.6728 13.421 18.8215 12.2545 19.6416 12.3659C19.8374 12.3921 20.0261 12.4572 20.197 12.5576C20.3679 12.658 20.5175 12.7917 20.6374 12.9509C20.7571 13.1102 20.8447 13.2919 20.8951 13.4856C20.9455 13.6793 20.9576 13.8811 20.9308 14.0797Z" fill="#664328"/>
<path d="M16.8664 16.0335C16.8137 16.4332 16.6066 16.7954 16.2907 17.0402C15.9748 17.285 15.576 17.3925 15.182 17.339C14.3604 17.2274 12.3869 17.0538 12.4976 16.2143C12.6084 15.3749 14.7588 14.2072 15.5804 14.3187C15.776 14.3452 15.9644 14.4107 16.1351 14.5113C16.3057 14.612 16.4549 14.7458 16.5744 14.9051C16.694 15.0644 16.7813 15.2461 16.8313 15.4398C16.8814 15.6334 16.8934 15.8352 16.8664 16.0335Z" fill="#664328"/>
<path d="M12.9094 17.4837C12.9398 17.6811 12.9315 17.8826 12.885 18.0768C12.8385 18.2709 12.7548 18.4538 12.6386 18.6151C12.5224 18.7764 12.376 18.9129 12.2078 19.0167C12.0395 19.1206 11.8528 19.1899 11.6582 19.2205C10.8408 19.3497 8.89969 19.7491 8.77228 18.9199C8.64486 18.0907 10.3801 16.3435 11.1998 16.2085C11.3946 16.1782 11.5934 16.187 11.7848 16.2347C11.9762 16.2824 12.1565 16.3679 12.3153 16.4863C12.4742 16.6047 12.6083 16.7538 12.7103 16.925C12.8122 17.0961 12.8799 17.286 12.9094 17.4837Z" fill="#664328"/>
<path d="M7.08038 21.9121C7.04084 21.7164 7.03962 21.5148 7.0769 21.3187C7.11419 21.1225 7.18915 20.9358 7.2976 20.769C7.40598 20.6023 7.54574 20.4589 7.70883 20.347C7.87186 20.2351 8.05508 20.1568 8.24793 20.1168C9.05999 19.9488 10.9807 19.4538 11.1463 20.2776C11.3119 21.1014 9.66061 22.9283 8.85003 23.0965C8.46059 23.1772 8.05553 23.0978 7.72368 22.8757C7.3919 22.6536 7.16054 22.307 7.08038 21.9121Z" fill="#664328"/>
<path d="M25.5088 13.4575C25.4551 13.8555 25.2484 14.2158 24.9337 14.4597C24.619 14.7036 24.222 14.8112 23.8294 14.7591C23.0093 14.6478 21.0343 14.4739 21.1451 13.6344C21.2558 12.7949 23.4077 11.6274 24.2278 11.7388C24.4233 11.7659 24.6116 11.832 24.7819 11.9332C24.9522 12.0343 25.1012 12.1685 25.2202 12.3282C25.3392 12.4879 25.426 12.6699 25.4755 12.8637C25.525 13.0574 25.5363 13.2593 25.5088 13.4575Z" fill="#664328"/>
<path d="M30.2468 16.5836C30.2207 16.7815 30.1564 16.9723 30.0576 17.145C29.9588 17.3177 29.8274 17.469 29.671 17.5902C29.5146 17.7115 29.3362 17.8002 29.1459 17.8515C28.9557 17.9028 28.7574 17.9155 28.5623 17.8891C27.7422 17.7777 25.769 17.6026 25.8795 16.7646C25.99 15.9266 28.1406 14.7574 28.9607 14.8687C29.1564 14.8951 29.345 14.9605 29.5157 15.061C29.6864 15.1616 29.8358 15.2954 29.9553 15.4548C30.0748 15.6142 30.1621 15.796 30.2121 15.9897C30.2621 16.1834 30.2739 16.3852 30.2468 16.5836Z" fill="#664328"/>
<path d="M23.8714 15.4017C23.8714 15.4017 25.1591 14.9105 24.9804 14.1291C24.8018 13.3476 22.6711 11.8998 20.8713 12.3305C19.0714 12.7612 17.8725 14.9871 18.0131 15.8866C18.1538 16.786 23.8714 15.4017 23.8714 15.4017Z" fill="#E35325"/>
<path d="M17.6322 13.951C17.6322 13.951 7.17292 15.9126 7.74956 25.1639C8.3262 34.4153 31.5467 24.4263 31.8726 21.5239C32.1986 18.6215 28.3238 11.1376 17.6322 13.951Z" fill="#FEE784"/>
<path d="M12.2587 23.3311C12.3807 23.3476 12.4928 23.2608 12.5091 23.137C12.5255 23.0133 12.4398 22.8995 12.3178 22.883C12.1959 22.8664 12.0838 22.9533 12.0674 23.077C12.0511 23.2008 12.1367 23.3146 12.2587 23.3311Z" fill="#D3BD61"/>
<path d="M11.9462 27.4139C12.0682 27.4304 12.1803 27.3436 12.1966 27.2198C12.213 27.0961 12.1273 26.9823 12.0053 26.9658C11.8834 26.9492 11.7713 27.0361 11.7549 27.1598C11.7386 27.2836 11.8242 27.3973 11.9462 27.4139Z" fill="#D3BD61"/>
<path d="M14.2304 24.2436C14.3524 24.2602 14.4645 24.1733 14.4808 24.0495C14.4971 23.9258 14.4115 23.812 14.2895 23.7955C14.1675 23.7789 14.0554 23.8658 14.0391 23.9896C14.0228 24.1133 14.1084 24.227 14.2304 24.2436Z" fill="#D3BD61"/>
<path d="M15.4707 22.2408C15.5926 22.2573 15.7047 22.1704 15.721 22.0467C15.7374 21.923 15.6517 21.8092 15.5297 21.7927C15.4078 21.7761 15.2957 21.863 15.2793 21.9867C15.263 22.1105 15.3486 22.2242 15.4707 22.2408Z" fill="#D3BD61"/>
<path d="M11.6816 20.8657C11.8036 20.8823 11.9157 20.7953 11.932 20.6716C11.9484 20.5479 11.8627 20.4342 11.7407 20.4176C11.6187 20.401 11.5066 20.4879 11.4903 20.6116C11.474 20.7354 11.5596 20.8492 11.6816 20.8657Z" fill="#D3BD61"/>
<path d="M10.0947 22.7515C10.2166 22.7681 10.3287 22.6812 10.3451 22.5575C10.3614 22.4337 10.2758 22.32 10.1538 22.3034C10.0318 22.2869 9.91969 22.3737 9.90336 22.4975C9.88703 22.6212 9.97266 22.735 10.0947 22.7515Z" fill="#D3BD61"/>
<path d="M10.4384 25.4073C10.5604 25.4239 10.6725 25.337 10.6888 25.2133C10.7051 25.0895 10.6195 24.9758 10.4975 24.9592C10.3756 24.9427 10.2634 25.0296 10.2471 25.1533C10.2308 25.2771 10.3164 25.3908 10.4384 25.4073Z" fill="#D3BD61"/>
<path d="M14.706 27.1134C14.828 27.13 14.9401 27.0431 14.9564 26.9193C14.9727 26.7956 14.8871 26.6819 14.7651 26.6653C14.6431 26.6487 14.531 26.7356 14.5147 26.8594C14.4984 26.9831 14.5841 27.0968 14.706 27.1134Z" fill="#D3BD61"/>
<path d="M12.8886 25.6777C13.0106 25.6943 13.1227 25.6074 13.139 25.4836C13.1553 25.3599 13.0697 25.2462 12.9477 25.2296C12.8258 25.213 12.7136 25.2999 12.6973 25.4237C12.681 25.5474 12.7666 25.6612 12.8886 25.6777Z" fill="#D3BD61"/>
<path d="M17.5615 25.1824C17.6835 25.199 17.7956 25.112 17.8119 24.9883C17.8282 24.8646 17.7426 24.7508 17.6206 24.7343C17.4986 24.7177 17.3865 24.8046 17.3702 24.9283C17.3538 25.0521 17.4395 25.1658 17.5615 25.1824Z" fill="#D3BD61"/>
<path d="M18.3496 26.7093C18.4716 26.7259 18.5837 26.639 18.6 26.5152C18.6163 26.3915 18.5307 26.2778 18.4087 26.2612C18.2867 26.2447 18.1746 26.3315 18.1582 26.4552C18.1419 26.579 18.2276 26.6928 18.3496 26.7093Z" fill="#D3BD61"/>
<path d="M23.0146 23.493C23.1366 23.5096 23.2487 23.4227 23.2651 23.299C23.2813 23.1752 23.1957 23.0615 23.0737 23.0449C22.9517 23.0283 22.8396 23.1153 22.8233 23.239C22.807 23.3628 22.8926 23.4765 23.0146 23.493Z" fill="#D3BD61"/>
<path d="M22.5761 20.5232C22.6981 20.5398 22.8102 20.4529 22.8265 20.3292C22.8428 20.2054 22.7572 20.0917 22.6352 20.0751C22.5133 20.0585 22.4011 20.1455 22.3848 20.2692C22.3685 20.3929 22.4542 20.5066 22.5761 20.5232Z" fill="#D3BD61"/>
<path d="M18.3818 18.964C18.5037 18.9805 18.6159 18.8936 18.6322 18.7699C18.6485 18.6461 18.5629 18.5324 18.4409 18.5158C18.3189 18.4993 18.2068 18.5862 18.1905 18.7099C18.1741 18.8337 18.2598 18.9474 18.3818 18.964Z" fill="#D3BD61"/>
<path d="M15.5253 18.8041C15.6473 18.8206 15.7594 18.7338 15.7757 18.61C15.7921 18.4863 15.7064 18.3725 15.5844 18.356C15.4625 18.3394 15.3504 18.4263 15.334 18.55C15.3177 18.6738 15.4033 18.7876 15.5253 18.8041Z" fill="#D3BD61"/>
<path d="M20.3642 15.2465C20.4862 15.263 20.5983 15.1761 20.6146 15.0524C20.6309 14.9286 20.5453 14.8148 20.4233 14.7983C20.3013 14.7818 20.1892 14.8687 20.1729 14.9924C20.1566 15.1162 20.2422 15.2299 20.3642 15.2465Z" fill="#D3BD61"/>
<path d="M20.2284 24.2444C20.3504 24.2609 20.4625 24.1741 20.4789 24.0503C20.4952 23.9266 20.4095 23.8128 20.2875 23.7963C20.1656 23.7797 20.0535 23.8666 20.0372 23.9903C20.0208 24.1141 20.1065 24.2279 20.2284 24.2444Z" fill="#D3BD61"/>
<path d="M22.3261 15.7408C22.4481 15.7574 22.5602 15.6705 22.5765 15.5467C22.5928 15.423 22.5072 15.3093 22.3852 15.2927C22.2633 15.2761 22.1511 15.363 22.1348 15.4868C22.1185 15.6105 22.2041 15.7242 22.3261 15.7408Z" fill="#D3BD61"/>
<path d="M19.0429 21.4529C19.1649 21.4695 19.277 21.3826 19.2934 21.2588C19.3096 21.1351 19.224 21.0213 19.1021 21.0048C18.98 20.9883 18.8679 21.0751 18.8516 21.1988C18.8353 21.3226 18.921 21.4364 19.0429 21.4529Z" fill="#D3BD61"/>
<path d="M21.416 21.8559C21.538 21.8725 21.6501 21.7855 21.6664 21.6618C21.6827 21.5381 21.5971 21.4244 21.4751 21.4078C21.3531 21.3912 21.241 21.4781 21.2247 21.6019C21.2083 21.7256 21.294 21.8393 21.416 21.8559Z" fill="#D3BD61"/>
<path d="M23.8261 21.7604C23.9481 21.7769 24.0603 21.6901 24.0766 21.5663C24.0928 21.4426 24.0072 21.3288 23.8853 21.3123C23.7633 21.2957 23.6511 21.3826 23.6348 21.5063C23.6185 21.6301 23.7042 21.7438 23.8261 21.7604Z" fill="#D3BD61"/>
<path d="M25.7871 22.2548C25.909 22.2713 26.0211 22.1844 26.0375 22.0607C26.0538 21.9369 25.9682 21.8232 25.8462 21.8066C25.7242 21.7901 25.6121 21.877 25.5957 22.0007C25.5794 22.1245 25.6651 22.2382 25.7871 22.2548Z" fill="#D3BD61"/>
<path d="M24.3163 15.783C24.4384 15.7996 24.5505 15.7127 24.5668 15.5889C24.5831 15.4652 24.4974 15.3515 24.3755 15.3349C24.2535 15.3183 24.1414 15.4052 24.125 15.529C24.1088 15.6527 24.1944 15.7664 24.3163 15.783Z" fill="#D3BD61"/>
<path d="M26.2763 16.2771C26.3983 16.2937 26.5104 16.2068 26.5267 16.083C26.543 15.9593 26.4574 15.8455 26.3354 15.829C26.2134 15.8124 26.1013 15.8993 26.085 16.0231C26.0687 16.1468 26.1543 16.2605 26.2763 16.2771Z" fill="#D3BD61"/>
<path d="M18.8525 16.9267C18.9745 16.9433 19.0866 16.8563 19.1029 16.7326C19.1192 16.6089 19.0336 16.4952 18.9116 16.4786C18.7896 16.462 18.6775 16.5489 18.6612 16.6726C18.6448 16.7964 18.7305 16.9102 18.8525 16.9267Z" fill="#D3BD61"/>
<path d="M20.8125 17.4208C20.9344 17.4373 21.0465 17.3504 21.0628 17.2267C21.0792 17.1029 20.9935 16.9892 20.8715 16.9726C20.7496 16.9561 20.6375 17.043 20.6211 17.1667C20.6048 17.2905 20.6904 17.4042 20.8125 17.4208Z" fill="#D3BD61"/>
<path d="M23.3984 17.7095C23.5203 17.726 23.6325 17.6391 23.6488 17.5154C23.6651 17.3917 23.5795 17.2779 23.4575 17.2613C23.3355 17.2448 23.2234 17.3317 23.2071 17.4554C23.1907 17.5792 23.2764 17.6929 23.3984 17.7095Z" fill="#D3BD61"/>
<path d="M12.6064 19.4919C12.7283 19.5085 12.8405 19.4216 12.8568 19.2979C12.8731 19.1741 12.7875 19.0604 12.6655 19.0438C12.5435 19.0272 12.4314 19.1142 12.4151 19.2379C12.3988 19.3616 12.4844 19.4753 12.6064 19.4919Z" fill="#D3BD61"/>
<path d="M14.5654 19.9861C14.6873 20.0027 14.7994 19.9158 14.8158 19.7921C14.8321 19.6683 14.7464 19.5546 14.6245 19.538C14.5025 19.5215 14.3904 19.6084 14.3741 19.7321C14.3577 19.8559 14.4434 19.9696 14.5654 19.9861Z" fill="#D3BD61"/>
<path d="M17.5029 22.2063C17.6248 22.2229 17.7369 22.136 17.7533 22.0123C17.7696 21.8885 17.684 21.7748 17.562 21.7582C17.44 21.7417 17.3279 21.8286 17.3116 21.9523C17.2952 22.0761 17.3809 22.1898 17.5029 22.2063Z" fill="#D3BD61"/>
<path d="M28.5742 20.524C28.6961 20.5405 28.8082 20.4537 28.8246 20.33C28.8409 20.2062 28.7553 20.0924 28.6332 20.0759C28.5113 20.0593 28.3992 20.1462 28.3829 20.27C28.3665 20.3937 28.4522 20.5075 28.5742 20.524Z" fill="#D3BD61"/>
<path d="M24.3798 18.9648C24.5018 18.9813 24.6139 18.8944 24.6302 18.7707C24.6466 18.647 24.5609 18.5332 24.4389 18.5167C24.317 18.5001 24.2048 18.587 24.1885 18.7107C24.1722 18.8345 24.2578 18.9482 24.3798 18.9648Z" fill="#D3BD61"/>
<path d="M13.6679 16.8812C13.7899 16.8978 13.902 16.8108 13.9183 16.6871C13.9346 16.5633 13.849 16.4496 13.727 16.433C13.605 16.4165 13.4929 16.5034 13.4766 16.6271C13.4603 16.7509 13.5459 16.8646 13.6679 16.8812Z" fill="#D3BD61"/>
<path d="M16.2529 17.1713C16.3748 17.1878 16.4869 17.1009 16.5033 16.9772C16.5196 16.8535 16.434 16.7397 16.312 16.7232C16.19 16.7066 16.0779 16.7935 16.0616 16.9172C16.0452 17.041 16.1309 17.1547 16.2529 17.1713Z" fill="#D3BD61"/>
<path d="M17.2353 18.4252C17.3573 18.4417 17.4694 18.3548 17.4857 18.2311C17.502 18.1073 17.4164 17.9936 17.2944 17.977C17.1724 17.9605 17.0603 18.0473 17.044 18.1711C17.0277 18.2948 17.1133 18.4086 17.2353 18.4252Z" fill="#D3BD61"/>
<path d="M21.5234 18.805C21.6454 18.8216 21.7575 18.7347 21.7738 18.611C21.7901 18.4872 21.7045 18.3735 21.5825 18.3569C21.4605 18.3404 21.3484 18.4272 21.3321 18.551C21.3157 18.6747 21.4014 18.7885 21.5234 18.805Z" fill="#D3BD61"/>
<path d="M27.7705 17.2782C27.8924 17.2948 28.0045 17.2079 28.0209 17.0842C28.0372 16.9604 27.9516 16.8467 27.8295 16.8301C27.7076 16.8136 27.5955 16.9005 27.5791 17.0242C27.5628 17.148 27.6484 17.2617 27.7705 17.2782Z" fill="#D3BD61"/>
<path d="M25.6787 17.8534C25.8006 17.87 25.9127 17.783 25.9291 17.6593C25.9454 17.5356 25.8598 17.4218 25.7377 17.4053C25.6158 17.3887 25.5037 17.4756 25.4873 17.5993C25.471 17.7231 25.5566 17.8368 25.6787 17.8534Z" fill="#D3BD61"/>
<path d="M25.9853 20.1971C26.1073 20.2137 26.2194 20.1268 26.2357 20.0031C26.252 19.8793 26.1664 19.7656 26.0444 19.749C25.9224 19.7324 25.8103 19.8194 25.794 19.9431C25.7777 20.0668 25.8634 20.1805 25.9853 20.1971Z" fill="#D3BD61"/>
<path d="M29.7666 18.8036C29.8885 18.8202 30.0006 18.7333 30.0169 18.6095C30.0333 18.4858 29.9476 18.3721 29.8256 18.3555C29.7037 18.3389 29.5916 18.4258 29.5752 18.5496C29.5589 18.6733 29.6445 18.787 29.7666 18.8036Z" fill="#D3BD61"/>
<path d="M21.5937 26.1205C21.7157 26.137 21.8278 26.0502 21.8441 25.9265C21.8604 25.8027 21.7748 25.6889 21.6528 25.6724C21.5308 25.6558 21.4187 25.7427 21.4024 25.8665C21.3861 25.9902 21.4717 26.104 21.5937 26.1205Z" fill="#D3BD61"/>
<path d="M25.8056 24.6047C25.9276 24.6213 26.0397 24.5344 26.0561 24.4107C26.0724 24.2869 25.9867 24.1732 25.8647 24.1566C25.7427 24.14 25.6306 24.227 25.6143 24.3507C25.598 24.4744 25.6837 24.5881 25.8056 24.6047Z" fill="#D3BD61"/>
<path d="M28.1054 22.8779C28.2274 22.8945 28.3395 22.8076 28.3558 22.6838C28.3721 22.5601 28.2865 22.4464 28.1645 22.4298C28.0425 22.4133 27.9304 22.5002 27.9141 22.6239C27.8978 22.7476 27.9834 22.8614 28.1054 22.8779Z" fill="#D3BD61"/>
<path d="M33.1317 22.4127C31.3708 22.1855 27.9528 25.9845 27.9528 25.9845C27.9528 25.9845 27.8127 27.6891 29.2784 27.3121C30.744 26.935 33.1166 29.9425 34.0004 27.3837C34.8842 24.8249 40.0324 23.6566 39.4168 22.4726C38.8011 21.2887 34.9173 23.9665 35.6069 22.3765C36.2964 20.7866 35.1774 22.6733 33.1317 22.4127Z" fill="#628E30"/>
<path d="M30.5748 26.5379C28.8132 26.3096 25.3942 30.1094 25.3942 30.1094C25.3942 30.1094 25.2551 31.8133 26.7198 31.437C28.1844 31.0608 30.5579 34.0675 31.4427 31.5079C32.3276 28.9484 37.4738 27.7815 36.8591 26.5968C36.2444 25.4121 32.3587 28.0914 33.049 26.5025C33.7393 24.9136 32.6168 26.7998 30.5748 26.5379Z" fill="#6F9A3F"/>
<path d="M29.6228 20.5844C27.862 20.3572 24.443 24.157 24.443 24.157C24.443 24.157 24.3039 25.8608 25.7686 25.4845C27.2333 25.1082 29.6067 28.115 30.4915 25.5554C31.3763 22.9958 36.5227 21.829 35.908 20.6443C35.2933 19.4596 31.4075 22.139 32.097 20.549C32.7866 18.9591 31.6627 20.8497 29.6228 20.5844Z" fill="#6F9A3F"/>
<path d="M16.4281 27.9637C17.5155 29.7937 22.1672 30.7514 22.1672 30.7514C22.1672 30.7514 23.2846 29.845 22.0438 28.6679C20.803 27.4908 20.9499 23.3743 18.8035 24.0856C16.6571 24.797 12.3782 20.5807 12.1017 21.8915C11.8252 23.2023 16.1255 25.2982 14.6902 25.6036C13.2549 25.909 15.1671 25.8438 16.4281 27.9637Z" fill="#6F9A3F"/>
<path d="M19.5287 27.6985C20.6112 29.5325 25.2678 30.4863 25.2678 30.4863C25.2678 30.4863 26.3853 29.5799 25.1445 28.4028C23.9036 27.2257 24.0505 23.1092 21.9054 23.8243C19.7604 24.5394 15.4784 20.3128 15.2013 21.6271C14.9244 22.9415 19.2252 25.0339 17.7899 25.3393C16.3546 25.6447 18.2678 25.5787 19.5287 27.6985Z" fill="#6F9A3F"/>
<path d="M13.9517 29.3814C15.04 31.2108 19.6907 32.1692 19.6907 32.1692C19.6907 32.1692 20.8083 31.2629 19.5674 30.0858C18.3265 28.9087 18.4734 24.7921 16.3274 25.508C14.1813 26.2238 9.90277 21.9978 9.61985 23.3104C9.33686 24.6231 13.6437 26.7171 12.2084 27.0226C10.7731 27.328 12.6917 27.2609 13.9517 29.3814Z" fill="#6F9A3F"/>
<path d="M20.3787 27.0613C21.4669 28.8924 26.1177 29.8491 26.1177 29.8491C26.1177 29.8491 27.2353 28.9427 25.9951 27.7666C24.7551 26.5906 24.9012 22.473 22.7542 23.1897C20.6072 23.9063 16.3288 19.6784 16.0501 20.9925C15.7714 22.3066 20.0732 24.3982 18.6387 24.7047C17.2041 25.0111 19.1177 24.9415 20.3787 27.0613Z" fill="#6F9A3F"/>
<path d="M25.2013 30.8067C26.2887 32.6368 30.9404 33.5945 30.9404 33.5945C30.9404 33.5945 32.0571 32.6872 30.8171 31.511C29.577 30.335 29.72 26.2134 27.5776 26.936C25.4351 27.6587 21.1539 23.425 20.8735 24.7389C20.5931 26.0528 24.8966 28.1446 23.4621 28.451C22.0275 28.7575 23.9414 28.6861 25.2013 30.8067Z" fill="#6F9A3F"/>
<path d="M22.0409 26.0881C23.1234 27.9221 27.78 28.8759 27.78 28.8759C27.78 28.8759 28.8975 27.9696 27.6574 26.7935C26.4173 25.6174 26.5634 21.4998 24.4164 22.2165C22.2694 22.9331 17.992 18.7045 17.7123 20.0193C17.4326 21.3342 21.7354 23.425 20.3009 23.7315C18.8663 24.0379 20.7815 23.9703 22.0409 26.0881Z" fill="#6F9A3F"/>
<path d="M26.8911 23.7772C26.2192 21.6692 21.8775 19.1639 21.8775 19.1639C21.8775 19.1639 20.5911 19.6381 21.5487 21.176C22.5063 22.7138 21.4847 26.5736 23.738 26.6301C25.9913 26.6865 29.2665 32.1649 29.8232 31.0156C30.3799 29.8663 26.624 26.4027 28.0859 26.6027C29.5477 26.8027 27.6717 26.224 26.8911 23.7772Z" fill="#628E31"/>
<path d="M19.6473 22.0712C19.5181 21.4158 20.724 21.3612 21.3432 21.4158C22.1507 21.4093 22.8775 22.7266 22.7968 23.0543C22.716 23.382 21.3432 23.5459 20.6972 23.5459C20.0511 23.5459 19.8089 22.8905 19.6473 22.0712Z" fill="#C9A053"/>
<path d="M20.4447 22.219C20.5339 22.219 20.6062 22.1823 20.6062 22.1371C20.6062 22.0918 20.5339 22.0551 20.4447 22.0551C20.3555 22.0551 20.2832 22.0918 20.2832 22.1371C20.2832 22.1823 20.3555 22.219 20.4447 22.219Z" fill="#9E772C"/>
<path d="M21.0912 22.5466C21.1804 22.5466 21.2527 22.51 21.2527 22.4647C21.2527 22.4195 21.1804 22.3828 21.0912 22.3828C21.002 22.3828 20.9297 22.4195 20.9297 22.4647C20.9297 22.51 21.002 22.5466 21.0912 22.5466Z" fill="#9E772C"/>
<path d="M21.5756 22.219C21.6648 22.219 21.7371 22.1823 21.7371 22.1371C21.7371 22.0918 21.6648 22.0551 21.5756 22.0551C21.4864 22.0551 21.4141 22.0918 21.4141 22.1371C21.4141 22.1823 21.4864 22.219 21.5756 22.219Z" fill="#9E772C"/>
<path d="M21.8988 22.7105C21.988 22.7105 22.0603 22.6739 22.0603 22.6286C22.0603 22.5834 21.988 22.5467 21.8988 22.5467C21.8096 22.5467 21.7373 22.5834 21.7373 22.6286C21.7373 22.6739 21.8096 22.7105 21.8988 22.7105Z" fill="#9E772C"/>
<path d="M23.5427 24.4735C22.7361 25.9655 24.2049 30.1456 24.2049 30.1456C24.2049 30.1456 25.3719 30.784 25.6386 29.3757C25.9052 27.9674 28.9202 26.768 27.4118 25.2106C25.9033 23.6533 26.9465 18.7384 25.8715 18.9224C24.7965 19.1065 25.2965 23.3603 24.4134 22.2711C23.5304 21.182 24.4759 22.7452 23.5427 24.4735Z" fill="#6F9A3F"/>
<path d="M25.3269 21.1465C23.6209 21.594 21.3164 26.5806 21.3164 26.5806C21.3164 26.5806 21.5844 28.2843 22.8737 27.3661C24.1629 26.4479 27.0956 28.4613 27.3159 25.6381C27.536 22.8149 32.0904 19.7295 31.2343 18.812C30.3784 17.8946 27.3686 21.9717 27.6394 20.1663C27.9101 18.3608 27.3015 20.6288 25.3269 21.1465Z" fill="#6F9A3F"/>
<path d="M26.0934 28.8357C27.1818 30.665 31.8324 31.6234 31.8324 31.6234C31.8324 31.6234 32.9509 30.7163 31.7091 29.54C30.4673 28.3637 30.6162 24.2455 28.4691 24.9622C26.3221 25.6789 22.0445 21.452 21.765 22.7651C21.4856 24.0782 25.7889 26.1718 24.3536 26.4772C22.9183 26.7826 24.8335 26.7151 26.0934 28.8357Z" fill="#6F9A3F"/>
<path d="M22.6221 23.1733C19.9552 23.2322 17.8675 24.5881 17.96 26.1997C18.0525 27.8113 20.2898 29.0685 22.9577 29.0089C25.6256 28.9492 27.7123 27.5941 27.6205 25.9835C27.5288 24.3729 25.293 23.1113 22.6221 23.1733ZM22.9389 28.6664C20.5831 28.7189 18.6084 27.6083 18.5315 26.1823C18.4545 24.7563 20.2928 23.564 22.6426 23.5161C24.9925 23.4682 26.9723 24.5731 27.0492 25.9992C27.1262 27.4252 25.2929 28.6136 22.9389 28.6664Z" fill="#E7EEDF"/>
<path d="M31.5516 22.0417C29.9196 22.4438 28.7548 23.5771 28.9501 24.5723C29.1454 25.5675 30.6241 26.0477 32.2576 25.6475C33.8911 25.2473 35.0544 24.1121 34.8592 23.1169C34.6639 22.1217 33.1846 21.6387 31.5516 22.0417ZM32.2146 25.4341C30.7748 25.7893 29.4672 25.3647 29.2933 24.4883C29.1193 23.6119 30.1504 22.6106 31.5902 22.2554C33.03 21.9002 34.3368 22.3238 34.5107 23.2002C34.6847 24.0766 33.6553 25.0781 32.2155 25.4333L32.2146 25.4341Z" fill="#E7EEDF"/>
<path d="M23.8674 24.3198C23.6324 23.4168 22.0958 23.0452 20.4351 23.4899C18.7744 23.9345 17.6187 25.027 17.8536 25.93C18.0885 26.833 19.6251 27.2046 21.2858 26.7599C22.9465 26.3153 24.1023 25.2228 23.8674 24.3198Z" fill="#D75527"/>
<path d="M23.3995 24.4452C23.2012 23.683 21.9037 23.3695 20.5015 23.7449C19.0993 24.1204 18.1232 25.0426 18.3215 25.8048C18.5198 26.567 19.8173 26.8805 21.2195 26.505C22.6217 26.1295 23.5978 25.2074 23.3995 24.4452Z" fill="#B74526"/>
<path d="M21.264 24.1428C21.3317 24.0073 21.3335 23.8701 21.2679 23.8364C21.2023 23.8027 21.0943 23.8852 21.0266 24.0207C20.9588 24.1563 20.9571 24.2934 21.0227 24.3271C21.0882 24.3608 21.1962 24.2783 21.264 24.1428Z" fill="#C28960"/>
<path d="M19.7244 24.8395C19.7532 24.7619 19.6738 24.6597 19.5472 24.6114C19.4205 24.563 19.2945 24.5868 19.2657 24.6644C19.2369 24.742 19.3162 24.8441 19.4428 24.8925C19.5695 24.9408 19.6956 24.9172 19.7244 24.8395Z" fill="#C28960"/>
<path d="M23.587 23.8753C23.6394 23.4286 24.4223 23.6495 24.8071 23.8158C25.3251 23.983 25.5186 24.9801 25.3994 25.1726C25.2801 25.3651 24.368 25.1787 23.9546 25.0416C23.5413 24.9045 23.5214 24.4338 23.587 23.8753Z" fill="#C9A053"/>
<path d="M24.0676 24.1393C24.1247 24.1582 24.1785 24.1501 24.1878 24.1211C24.1972 24.0922 24.1585 24.0534 24.1014 24.0345C24.0443 24.0155 23.9905 24.0237 23.9812 24.0526C23.9718 24.0815 24.0105 24.1204 24.0676 24.1393Z" fill="#9E772C"/>
<path d="M24.4123 24.4859C24.4694 24.5048 24.5232 24.4967 24.5326 24.4678C24.5419 24.4388 24.5032 24.4 24.4461 24.3811C24.389 24.3622 24.3352 24.3703 24.3259 24.3992C24.3166 24.4282 24.3553 24.467 24.4123 24.4859Z" fill="#9E772C"/>
<path d="M24.7903 24.3791C24.8473 24.398 24.9012 24.3899 24.9105 24.3609C24.9198 24.332 24.8811 24.2932 24.824 24.2743C24.767 24.2553 24.7131 24.2635 24.7038 24.2924C24.6945 24.3214 24.7332 24.3602 24.7903 24.3791Z" fill="#9E772C"/>
<path d="M24.8957 24.7622C24.9528 24.7811 25.0066 24.773 25.016 24.744C25.0253 24.7151 24.9866 24.6763 24.9295 24.6573C24.8724 24.6384 24.8186 24.6465 24.8093 24.6755C24.8 24.7044 24.8387 24.7433 24.8957 24.7622Z" fill="#9E772C"/>
<path d="M25.9225 23.3136C25.5818 23.0255 26.191 22.48 26.5382 22.2433C26.9587 21.8938 27.8882 22.2727 27.9823 22.4789C28.0765 22.6853 27.4253 23.3596 27.0867 23.6365C26.7482 23.9133 26.3483 23.6737 25.9225 23.3136Z" fill="#C9A053"/>
<path d="M26.4029 23.0491C26.4496 23.0109 26.4722 22.9606 26.4534 22.9369C26.4345 22.9132 26.3814 22.925 26.3346 22.9632C26.2879 23.0015 26.2653 23.0517 26.2841 23.0754C26.303 23.0991 26.3561 23.0873 26.4029 23.0491Z" fill="#9E772C"/>
<path d="M26.8775 22.944C26.9242 22.9058 26.9468 22.8556 26.928 22.8319C26.9092 22.8082 26.856 22.8199 26.8092 22.8582C26.7625 22.8964 26.7399 22.9466 26.7587 22.9703C26.7776 22.994 26.8307 22.9823 26.8775 22.944Z" fill="#9E772C"/>
<path d="M26.9947 22.5646C27.0414 22.5264 27.064 22.4761 27.0452 22.4524C27.0263 22.4287 26.9732 22.4405 26.9264 22.4787C26.8797 22.517 26.8571 22.5672 26.8759 22.5909C26.8948 22.6146 26.9479 22.6028 26.9947 22.5646Z" fill="#9E772C"/>
<path d="M27.3687 22.6837C27.4154 22.6454 27.4381 22.5952 27.4192 22.5715C27.4004 22.5478 27.3472 22.5596 27.3005 22.5978C27.2537 22.636 27.2311 22.6863 27.2499 22.71C27.2688 22.7337 27.3219 22.7219 27.3687 22.6837Z" fill="#9E772C"/>
<path d="M30.5305 22.9718C30.1323 22.7738 30.5968 22.0974 30.8788 21.784C31.2057 21.3434 32.1972 21.488 32.3368 21.6658C32.4764 21.8437 32.0013 22.6552 31.737 23.0056C31.4728 23.356 31.0283 23.2193 30.5305 22.9718Z" fill="#C9A053"/>
<path d="M30.9346 22.5995C30.9711 22.5511 30.9814 22.4969 30.9575 22.4784C30.9337 22.4599 30.8848 22.4841 30.8483 22.5325C30.8118 22.5809 30.8016 22.6351 30.8254 22.6536C30.8492 22.6721 30.8981 22.6479 30.9346 22.5995Z" fill="#9E772C"/>
<path d="M31.3721 22.3831C31.4086 22.3347 31.4189 22.2805 31.395 22.262C31.3712 22.2435 31.3223 22.2677 31.2858 22.3161C31.2493 22.3645 31.2391 22.4187 31.2629 22.4372C31.2867 22.4557 31.3356 22.4315 31.3721 22.3831Z" fill="#9E772C"/>
<path d="M31.3975 21.9863C31.434 21.938 31.4443 21.8837 31.4204 21.8652C31.3966 21.8467 31.3477 21.8709 31.3112 21.9193C31.2747 21.9677 31.2644 22.0219 31.2883 22.0404C31.3121 22.0589 31.361 22.0347 31.3975 21.9863Z" fill="#9E772C"/>
<path d="M31.7881 22.0121C31.8246 21.9637 31.8349 21.9095 31.811 21.891C31.7872 21.8725 31.7383 21.8967 31.7018 21.9451C31.6653 21.9935 31.6551 22.0477 31.6789 22.0662C31.7028 22.0847 31.7517 22.0605 31.7881 22.0121Z" fill="#9E772C"/>
<path d="M19.3794 25.2508C19.3568 25.1682 19.2359 25.1302 19.1096 25.1658C18.9831 25.2015 18.899 25.2974 18.9216 25.38C18.9443 25.4626 19.0651 25.5006 19.1915 25.4649C19.318 25.4292 19.4021 25.3334 19.3794 25.2508Z" fill="#C28960"/>
<path d="M20.3128 24.2485C20.2317 24.1142 20.117 24.0357 20.0567 24.0732C19.9964 24.1107 20.0132 24.2499 20.0942 24.3843C20.1753 24.5186 20.2899 24.5971 20.3503 24.5596C20.4106 24.5222 20.3939 24.3829 20.3128 24.2485Z" fill="#C28960"/>
<path d="M20.6586 25.9835C20.7263 25.8479 20.728 25.7107 20.6625 25.677C20.5969 25.6433 20.4889 25.7258 20.4211 25.8613C20.3534 25.9968 20.3516 26.134 20.4172 26.1678C20.4827 26.2015 20.5908 26.119 20.6586 25.9835Z" fill="#C28960"/>
<path d="M21.5505 25.7278C21.4872 25.5786 21.3848 25.48 21.3217 25.5076C21.2586 25.5351 21.2587 25.6784 21.3219 25.8275C21.3851 25.9767 21.4876 26.0753 21.5507 26.0478C21.6138 26.0202 21.6137 25.877 21.5505 25.7278Z" fill="#C28960"/>
<path d="M22.8325 24.4466C22.8009 24.3679 22.6762 24.345 22.5541 24.3955C22.4319 24.446 22.3585 24.5508 22.3902 24.6295C22.4219 24.7083 22.5465 24.7312 22.6686 24.6807C22.7908 24.6301 22.8641 24.5254 22.8325 24.4466Z" fill="#C28960"/>
<path d="M22.1211 23.9778C22.0761 23.9085 21.9485 23.9134 21.8361 23.9886C21.7236 24.0638 21.669 24.1808 21.714 24.2501C21.759 24.3194 21.8866 24.3145 21.999 24.2393C22.1115 24.1641 22.1661 24.047 22.1211 23.9778Z" fill="#C28960"/>
<path d="M22.182 25.5118C22.198 25.429 22.1053 25.3411 21.9752 25.3154C21.845 25.2896 21.7266 25.3358 21.7108 25.4187C21.6949 25.5014 21.7875 25.5894 21.9176 25.6151C22.0477 25.6408 22.1662 25.5946 22.182 25.5118Z" fill="#C28960"/>
<path d="M22.6645 25.0143C22.6661 24.9286 22.5609 24.8572 22.4298 24.8549C22.2986 24.8525 22.1909 24.92 22.1895 25.0057C22.1879 25.0914 22.293 25.1628 22.4242 25.1652C22.5554 25.1676 22.6631 25.1001 22.6645 25.0143Z" fill="#C28960"/>
<path d="M19.8804 25.6278C19.8389 25.5555 19.7114 25.5525 19.5957 25.6209C19.48 25.6894 19.4198 25.8035 19.4614 25.8757C19.5029 25.948 19.6304 25.951 19.7461 25.8826C19.8619 25.8141 19.922 25.7 19.8804 25.6278Z" fill="#C28960"/>
<path d="M28.2451 24.3779C27.9621 23.765 26.7946 23.7139 25.6374 24.2637C24.4802 24.8135 23.7715 25.756 24.0544 26.3688C24.3373 26.9817 25.5048 27.0329 26.662 26.4831C27.8192 25.9333 28.528 24.9908 28.2451 24.3779Z" fill="#D75527"/>
<path d="M27.9189 24.533C27.68 24.0155 26.6945 23.9721 25.7177 24.4362C24.7409 24.9003 24.1427 25.696 24.3817 26.2136C24.6206 26.7312 25.6061 26.7745 26.5829 26.3105C27.5597 25.8464 28.1578 25.0506 27.9189 24.533Z" fill="#B74526"/>
<path d="M26.3676 24.6077C26.4072 24.5007 26.3992 24.3987 26.3497 24.3798C26.3002 24.3609 26.2279 24.4324 26.1883 24.5393C26.1486 24.6464 26.1567 24.7484 26.2062 24.7673C26.2557 24.7861 26.328 24.7147 26.3676 24.6077Z" fill="#C28960"/>
<path d="M25.3081 25.2959C25.3191 25.2348 25.2508 25.171 25.1555 25.1534C25.0602 25.1358 24.9741 25.1709 24.9631 25.232C24.9521 25.2929 25.0205 25.3567 25.1157 25.3744C25.211 25.3921 25.2972 25.3568 25.3081 25.2959Z" fill="#C28960"/>
<path d="M25.0852 25.637C25.0577 25.5816 24.9648 25.5726 24.8776 25.617C24.7904 25.6613 24.7419 25.7423 24.7694 25.7977C24.7968 25.8532 24.8897 25.8622 24.9769 25.8177C25.0641 25.7734 25.1126 25.6925 25.0852 25.637Z" fill="#C28960"/>
<path d="M25.6906 24.7985C25.6228 24.7089 25.5333 24.6633 25.4909 24.6964C25.4484 24.7295 25.4689 24.8289 25.5368 24.9185C25.6046 25.0079 25.694 25.0537 25.7365 25.0205C25.779 24.9874 25.7584 24.8879 25.6906 24.7985Z" fill="#C28960"/>
<path d="M26.0678 26.0294C26.1074 25.9224 26.0994 25.8203 26.0499 25.8015C26.0004 25.7827 25.9282 25.8541 25.8885 25.961C25.8488 26.068 25.8569 26.1701 25.9064 26.189C25.9559 26.2079 26.0282 26.1364 26.0678 26.0294Z" fill="#C28960"/>
<path d="M26.6979 25.7369C26.6421 25.6344 26.5604 25.5718 26.5152 25.597C26.4701 25.6223 26.4788 25.7259 26.5345 25.8284C26.5903 25.931 26.6721 25.9936 26.7172 25.9683C26.7623 25.943 26.7537 25.8395 26.6979 25.7369Z" fill="#C28960"/>
<path d="M27.5237 24.6345C27.4911 24.5828 27.3971 24.5849 27.3139 24.6391C27.2306 24.6933 27.1895 24.779 27.2222 24.8307C27.2548 24.8823 27.3487 24.8802 27.432 24.8261C27.5153 24.7719 27.5564 24.6862 27.5237 24.6345Z" fill="#C28960"/>
<path d="M26.9084 24.5843C26.9833 24.5144 27.0118 24.4224 26.9723 24.3788C26.9327 24.3353 26.84 24.3566 26.7652 24.4265C26.6904 24.4964 26.6618 24.5883 26.7014 24.6319C26.741 24.6755 26.8337 24.6542 26.9084 24.5843Z" fill="#C28960"/>
<path d="M27.1354 25.4922C27.1352 25.4294 27.057 25.3789 26.9608 25.3792C26.8646 25.3796 26.7869 25.4307 26.7871 25.4935C26.7873 25.5562 26.8655 25.6068 26.9616 25.6064C27.0578 25.606 27.1356 25.5549 27.1354 25.4922Z" fill="#C28960"/>
<path d="M27.4461 25.0695C27.4346 25.0079 27.3487 24.9726 27.2542 24.9907C27.1597 25.0087 27.0924 25.0733 27.1038 25.135C27.1152 25.1966 27.2011 25.232 27.2957 25.2138C27.3902 25.1958 27.4575 25.1311 27.4461 25.0695Z" fill="#C28960"/>
<path d="M25.4055 26.0563C25.483 25.9906 25.5151 25.9001 25.4773 25.8541C25.4394 25.8081 25.3459 25.8241 25.2684 25.8897C25.1908 25.9554 25.1587 26.0459 25.1965 26.0919C25.2345 26.138 25.328 26.122 25.4055 26.0563Z" fill="#C28960"/>
<path d="M34.298 27.1229C34.9367 26.2655 34.0649 24.5052 32.351 23.1913C30.637 21.8774 28.7298 21.5074 28.0912 22.3649C27.4525 23.2223 28.3242 24.9825 30.0382 26.2964C31.7521 27.6103 33.6594 27.9803 34.298 27.1229Z" fill="#D75527"/>
<path d="M33.8144 26.7525C34.3536 26.0285 33.6178 24.5423 32.1708 23.4331C30.7237 22.3238 29.1135 22.0115 28.5742 22.7354C28.035 23.4595 28.7709 24.9456 30.218 26.0549C31.665 27.1642 33.2752 27.4765 33.8144 26.7525Z" fill="#B74526"/>
<path d="M32.205 23.7789C32.1474 23.6905 31.998 23.6877 31.8714 23.7727C31.7447 23.8576 31.6887 23.9981 31.7463 24.0865C31.8039 24.1748 31.9532 24.1777 32.0799 24.0927C32.2066 24.0078 32.2626 23.8673 32.205 23.7789Z" fill="#C28960"/>
<path d="M30.1924 23.0289C30.0989 22.8592 29.9642 22.755 29.8917 22.7962C29.8191 22.8373 29.8361 23.0082 29.9297 23.1779C30.0232 23.3477 30.1579 23.4519 30.2305 23.4108C30.303 23.3696 30.2859 23.1986 30.1924 23.0289Z" fill="#C28960"/>
<path d="M29.6831 23.5662C29.7459 23.4923 29.6952 23.3435 29.5698 23.2338C29.4445 23.1241 29.2919 23.095 29.2291 23.1689C29.1663 23.2428 29.217 23.3916 29.3423 23.5013C29.4677 23.611 29.6202 23.6401 29.6831 23.5662Z" fill="#C28960"/>
<path d="M31.0899 23.2936C31.068 23.0794 30.9898 22.9121 30.9153 22.92C30.8409 22.9278 30.7983 23.1079 30.8202 23.3221C30.8422 23.5363 30.9203 23.7036 30.9948 23.6957C31.0693 23.6879 31.1119 23.5078 31.0899 23.2936Z" fill="#C28960"/>
<path d="M30.7313 25.118C30.6738 25.0296 30.5244 25.0268 30.3977 25.1118C30.2711 25.1967 30.2151 25.3372 30.2726 25.4255C30.3302 25.5139 30.4796 25.5167 30.6063 25.4318C30.7329 25.3469 30.7889 25.2063 30.7313 25.118Z" fill="#C28960"/>
<path d="M31.5735 25.9473C31.5743 25.7333 31.5137 25.5596 31.4382 25.5593C31.3626 25.559 31.3006 25.7322 31.2998 25.9462C31.299 26.1601 31.3595 26.3338 31.4351 26.3341C31.5107 26.3345 31.5726 26.1612 31.5735 25.9473Z" fill="#C28960"/>
<path d="M33.4059 25.9225C33.4639 25.8413 33.4055 25.6978 33.2754 25.6021C33.1452 25.5063 32.9926 25.4946 32.9346 25.5758C32.8765 25.6571 32.9349 25.8006 33.0651 25.8963C33.1952 25.9921 33.3478 26.0038 33.4059 25.9225Z" fill="#C28960"/>
<path d="M32.9513 24.7912C32.9952 24.6958 32.9187 24.5654 32.7806 24.5C32.6424 24.4345 32.4948 24.4587 32.4509 24.5541C32.407 24.6494 32.4834 24.7798 32.6216 24.8453C32.7598 24.9108 32.9074 24.8866 32.9513 24.7912Z" fill="#C28960"/>
<path d="M32.2061 26.0089C32.1022 25.8539 31.9603 25.768 31.8893 25.817C31.8183 25.866 31.8451 26.0314 31.949 26.1863C32.053 26.3414 32.1948 26.4273 32.2658 26.3783C32.3368 26.3292 32.3101 26.1638 32.2061 26.0089Z" fill="#C28960"/>
<path d="M32.9666 26.3198C33.0355 26.2622 33.0001 26.103 32.8875 25.9642C32.7748 25.8254 32.6276 25.7595 32.5587 25.8171C32.4897 25.8747 32.5251 26.0339 32.6378 26.1727C32.7504 26.3116 32.8976 26.3774 32.9666 26.3198Z" fill="#C28960"/>
<path d="M29.9927 24.4295C30.0416 24.3383 29.9708 24.2033 29.8345 24.128C29.6981 24.0526 29.5479 24.0655 29.4989 24.1567C29.45 24.2479 29.5208 24.3829 29.6572 24.4582C29.7935 24.5336 29.9437 24.5207 29.9927 24.4295Z" fill="#C28960"/>
<path d="M22.2835 26.8467C20.1407 27.375 18.611 28.8629 18.8631 30.166C19.1153 31.4691 21.0653 32.1078 23.2042 31.5745C25.3432 31.0412 26.8767 29.5583 26.6246 28.2552C26.3725 26.9521 24.4312 26.3146 22.2835 26.8467ZM23.1528 31.3006C21.2618 31.7671 19.547 31.2104 19.3219 30.0583C19.0968 28.9063 20.4476 27.5922 22.3387 27.1256C24.2298 26.659 25.9445 27.2159 26.1704 28.3689C26.3963 29.5219 25.0446 30.835 23.1528 31.3006Z" fill="#E7EEDF"/>
<path d="M26.3957 24.3535C25.1738 24.6543 24.3013 25.5025 24.4464 26.2483C24.5916 26.9941 25.7007 27.3543 26.9228 27.0517C28.1449 26.7491 29.0172 25.9027 28.872 25.1568C28.7268 24.4111 27.6121 24.0537 26.3957 24.3535ZM26.8922 26.8939C25.8139 27.1602 24.8343 26.8421 24.7063 26.1849C24.5783 25.5277 25.3479 24.7777 26.4244 24.5191C27.5008 24.2606 28.4815 24.5699 28.6103 25.228C28.7391 25.8863 27.9705 26.6275 26.8858 26.8957L26.8922 26.8939Z" fill="#E7EEDF"/>
<path d="M17.1916 23.3586C15.9658 23.6625 15.0699 24.344 15.1743 24.8937C15.2786 25.4435 16.356 25.6403 17.5779 25.3395C18.7998 25.0387 19.7044 24.3503 19.5971 23.8028C19.4898 23.2554 18.4134 23.0578 17.1916 23.3586ZM17.5554 25.2232C16.4763 25.4886 15.5266 25.3129 15.4373 24.8262C15.3481 24.3397 16.1407 23.7374 17.219 23.471C18.2973 23.2046 19.2488 23.3806 19.3429 23.8633C19.4371 24.3461 18.6337 24.9568 17.5554 25.2232Z" fill="#E7EEDF"/>
<path d="M24.6912 22.5907C22.4496 23.1439 20.84 24.6529 21.0937 25.958C21.3473 27.2631 23.3734 27.8757 25.615 27.3224C27.8567 26.7693 29.4663 25.2603 29.2127 23.9552C28.959 22.6501 26.933 22.0375 24.6912 22.5907ZM25.5655 27.0407C23.5825 27.5331 21.8005 26.9892 21.5747 25.8361C21.3488 24.6831 22.7718 23.3523 24.7522 22.8667C26.7325 22.3812 28.5182 22.9175 28.743 24.0713C28.9679 25.2251 27.5404 26.5563 25.5606 27.0445L25.5655 27.0407Z" fill="#E7EEDF"/>
<path d="M33.2936 24.566C31.5431 24.7197 28.7197 29.2376 28.7197 29.2376C28.7197 29.2376 28.8121 30.9625 30.1892 30.2753C31.5664 29.5881 34.2901 32.0619 34.8099 29.3244C35.3296 26.5869 40.1907 24.3088 39.4338 23.2675C38.6767 22.2262 35.244 25.7274 35.7032 23.996C36.1623 22.2644 35.3194 24.3877 33.2936 24.566Z" fill="#6F9A3F"/>
<path d="M16.3908 26.8495C17.2699 25.6271 17.5538 24.3188 17.0249 23.9273C16.496 23.5359 15.3546 24.2094 14.4755 25.4317C13.5963 26.6541 13.3125 27.9623 13.8413 28.3538C14.3702 28.7453 15.5117 28.0718 16.3908 26.8495Z" fill="#D75527"/>
<path d="M16.2405 26.7386C16.9828 25.7066 17.2228 24.6022 16.7765 24.272C16.3303 23.9417 15.367 24.5105 14.6247 25.5426C13.8825 26.5746 13.6424 27.679 14.0886 28.0092C14.5348 28.3395 15.4983 27.7707 16.2405 26.7386Z" fill="#B74526"/>
<path d="M15.3695 25.2719C15.374 25.1423 15.3347 25.0358 15.2818 25.034C15.229 25.0321 15.1825 25.1356 15.1781 25.2652C15.1736 25.3947 15.2129 25.5012 15.2658 25.5031C15.3186 25.505 15.3651 25.4015 15.3695 25.2719Z" fill="#C28960"/>
<path d="M14.5993 26.5133C14.5692 26.4545 14.4697 26.4464 14.377 26.4952C14.2843 26.5439 14.2335 26.6311 14.2635 26.6898C14.2935 26.7487 14.3931 26.7568 14.4858 26.708C14.5785 26.6593 14.6293 26.5721 14.5993 26.5133Z" fill="#C28960"/>
<path d="M14.4762 27.227C14.5403 27.1315 14.5522 27.0263 14.5029 26.9922C14.4535 26.9581 14.3615 27.008 14.2974 27.1036C14.2333 27.1992 14.2213 27.3043 14.2707 27.3384C14.3201 27.3725 14.4121 27.3226 14.4762 27.227Z" fill="#C28960"/>
<path d="M14.9184 26.0219C14.9478 25.9659 14.894 25.8786 14.7982 25.8268C14.7024 25.775 14.6009 25.7784 14.5715 25.8344C14.5421 25.8903 14.5959 25.9777 14.6917 26.0295C14.7875 26.0813 14.889 26.0779 14.9184 26.0219Z" fill="#C28960"/>
<path d="M15.5853 26.8598C15.5898 26.7303 15.5506 26.6238 15.4977 26.6219C15.4448 26.62 15.3983 26.7235 15.3939 26.8531C15.3895 26.9827 15.4287 27.0892 15.4816 27.091C15.5344 27.0929 15.5809 26.9894 15.5853 26.8598Z" fill="#C28960"/>
<path d="M16.1755 26.4167C16.2141 26.3695 16.1747 26.2717 16.0874 26.1983C16.0002 26.1248 15.8982 26.1037 15.8595 26.1508C15.821 26.198 15.8604 26.2958 15.9476 26.3692C16.0349 26.4427 16.1369 26.4639 16.1755 26.4167Z" fill="#C28960"/>
<path d="M16.4606 24.8637C16.519 24.7619 16.5254 24.6552 16.4749 24.6254C16.4244 24.5956 16.3362 24.6541 16.2778 24.7559C16.2194 24.8577 16.2131 24.9644 16.2635 24.9942C16.3141 25.0239 16.4023 24.9655 16.4606 24.8637Z" fill="#C28960"/>
<path d="M15.8748 24.9267C15.9218 24.8152 15.9174 24.7063 15.865 24.6835C15.8126 24.6608 15.732 24.7328 15.685 24.8442C15.6379 24.9558 15.6423 25.0645 15.6947 25.0873C15.7471 25.1101 15.8277 25.0381 15.8748 24.9267Z" fill="#C28960"/>
<path d="M16.3991 25.6835C16.3609 25.6315 16.2607 25.6418 16.1753 25.7064C16.09 25.771 16.0518 25.8655 16.09 25.9175C16.1282 25.9694 16.2284 25.9591 16.3137 25.8945C16.3991 25.8299 16.4373 25.7354 16.3991 25.6835Z" fill="#C28960"/>
<path d="M16.4834 25.3147C16.561 25.2367 16.5884 25.137 16.5444 25.0919C16.5005 25.0468 16.4019 25.0734 16.3242 25.1513C16.2466 25.2293 16.2192 25.329 16.2631 25.3741C16.3071 25.4192 16.4057 25.3926 16.4834 25.3147Z" fill="#C28960"/>
<path d="M14.9673 27.2429C15.0179 27.1338 15.0165 27.0251 14.9643 27.0002C14.9121 26.9753 14.8287 27.0436 14.7782 27.1527C14.7277 27.2619 14.7291 27.3706 14.7813 27.3954C14.8336 27.4203 14.9168 27.352 14.9673 27.2429Z" fill="#C28960"/>
<path d="M11.1348 25.52C11.1348 25.52 12.5216 34.3414 19.1945 34.5121C25.8673 34.6827 26.5828 34.621 30.7511 34.3931C34.9195 34.1652 37.6374 30.0186 38.1055 25.1L11.1348 25.52Z" fill="#D28C3A"/>
</svg>
